<svg width="375" height="374" viewBox="0 0 375 374" fill="none" xmlns="http://www.w3.org/2000/svg">
<g clip-path="url(#clip0_332_5414)">
<rect width="375" height="374" fill="#F9FAFB"/>
<circle cx="321" cy="196" r="6" fill="#7DB3FF"/>
<circle cx="377" cy="238" r="14" fill="#D7E8FF"/>
<circle cx="124" cy="59" r="8" fill="#7DB3FF"/>
<circle cx="139" cy="120" r="5" fill="#D7E8FF"/>
<circle cx="270" cy="15" r="5" fill="#D7E8FF"/>
<circle cx="257" cy="230" r="2" fill="#1372FB"/>
<circle cx="85" cy="156" r="9" fill="#7DB3FF"/>
<circle opacity="0.5" cx="245" cy="128" r="17" fill="#D7E8FF"/>
<circle opacity="0.5" cx="279" cy="278" r="9" fill="#D7E8FF"/>
<circle opacity="0.5" cx="374" cy="305" r="31" fill="#D7E8FF"/>
<circle cx="3" cy="120" r="15" fill="#D7E8FF"/>
<circle cx="240" cy="160" r="4" fill="#7DB3FF"/>
<rect width="7.31773" height="5.3222" transform="matrix(0.487238 -0.873269 0.872496 0.488621 277 142.39)" fill="#7DB3FF"/>
<rect width="12" height="4" transform="matrix(0.487238 -0.873269 0.872496 0.488621 279 217.479)" fill="#7DB3FF"/>
<rect width="12" height="4" transform="matrix(-0.8881 -0.45965 0.461056 -0.887371 132.657 291.065)" fill="#7DB3FF"/>
<rect width="41.8997" height="27.7305" transform="matrix(0.622536 -0.782591 0.781604 0.623775 343 80.7903)" fill="#D7E8FF"/>
<rect opacity="0.3" width="76.5819" height="28.0694" transform="matrix(0.794151 0.60772 -0.608978 0.793187 -18.9064 143)" fill="#D7E8FF"/>
<rect width="8.3532" height="5.32509" transform="matrix(-0.139174 -0.990268 0.990487 -0.137605 217.163 77.0046)" fill="#1372FB"/>
<rect width="8.3532" height="5.32509" transform="matrix(-0.139174 -0.990268 0.990487 -0.137605 116.163 196.005)" fill="#D7E8FF"/>
<rect width="14.1965" height="6.87862" transform="matrix(-0.139174 -0.990268 0.990487 -0.137605 126.976 145.005)" fill="#1372FB"/>
<rect width="16" height="6.85175" transform="matrix(-0.709045 -0.705163 0.706286 -0.707927 106.331 194.133)" fill="#7DB3FF"/>
<rect width="16" height="6.85175" transform="matrix(-0.709045 -0.705163 0.706286 -0.707927 257.345 295.133)" fill="#7DB3FF"/>
<rect width="12" height="12.4809" transform="matrix(-0.721926 0.691971 -0.690826 -0.723021 39.2853 228.024)" fill="#D7E8FF"/>
<rect width="16.7411" height="7.1373" transform="matrix(-0.721926 0.691971 -0.690826 -0.723021 289.016 159.16)" fill="#D7E8FF"/>
<rect width="21.1072" height="11.5048" transform="matrix(-0.585144 0.810929 0.811855 0.583859 105.573 233.97)" fill="#D7E8FF"/>
<rect width="65.8382" height="35.8862" transform="matrix(-0.876635 0.481156 0.482545 0.875871 31.0452 268.362)" fill="#D7E8FF"/>
<path d="M68.875 90L94.4463 110.059L62.9339 105.675L68.875 90Z" fill="#D7E8FF"/>
<path d="M87 306.856L108.593 296L97.5088 319.481L87 306.856Z" fill="#D7E8FF"/>
<path d="M313 85.6927L319.727 105.4L327.782 84.0319L313 85.6927Z" fill="#D7E8FF"/>
<path d="M168.102 125.682L157.858 123.378L157.855 123.391L157.852 123.404L168.102 125.682ZM186.052 106.023L186.696 95.5429L186.696 95.5429L186.052 106.023ZM202.226 124.754L212.57 122.952L212.56 122.896L212.55 122.839L202.226 124.754ZM202.343 125.426L212.705 123.734L212.697 123.679L212.687 123.625L202.343 125.426ZM201.569 140.072L191.384 137.52L189.782 143.915L194.845 148.137L201.569 140.072ZM209.628 152.141L199.765 155.744L208.348 179.24L219.107 156.657L209.628 152.141ZM247.778 164.644L237.332 165.708L237.87 170.992L242.446 173.689L247.778 164.644ZM251.451 167.201L258.273 159.218L258.221 159.174L258.168 159.131L251.451 167.201ZM251.935 167.614L258.87 159.731L258.813 159.681L258.756 159.631L251.935 167.614ZM256.754 199.351L247.344 194.693L244.873 199.685L247.62 204.531L256.754 199.351ZM254.248 229.381L245.668 223.329L243.128 226.93L243.918 231.265L254.248 229.381ZM248.583 248.44L256.157 255.712L256.157 255.712L248.583 248.44ZM212.736 257.967L213.326 247.484L210.336 247.316L207.708 248.75L212.736 257.967ZM157.104 258.738L161.142 249.045L155.098 246.528L150.178 250.846L157.104 258.738ZM144.639 263.247L144.09 273.732L144.091 273.732L144.639 263.247ZM130.276 256.17L122.843 263.585L122.843 263.585L130.276 256.17ZM116.017 209.919L105.519 209.688L105.518 209.72L105.518 209.752L116.017 209.919ZM116.052 208.318L105.556 208.023L105.555 208.055L105.554 208.087L116.052 208.318ZM125.257 173.861L116.932 167.462L116.932 167.462L125.257 173.861ZM143.18 165.71L141.889 176.13L148.877 176.995L152.33 170.859L143.18 165.71ZM157.378 147.07L165.331 153.926L165.331 153.926L157.378 147.07ZM167.588 128.096L177.831 130.407L177.845 130.343L177.858 130.279L167.588 128.096ZM168.094 125.716L157.873 123.312L157.847 123.422L157.823 123.533L168.094 125.716ZM168.098 125.7L178.319 128.105L178.333 128.041L178.348 127.978L168.098 125.7ZM168.102 125.682L178.346 127.987C179.528 122.729 181.324 119.561 182.813 117.944C184.134 116.51 184.958 116.476 185.408 116.503L186.052 106.023L186.696 95.5429C170.377 94.5399 161.075 109.074 157.858 123.378L168.102 125.682ZM186.052 106.023L185.407 116.503C185.946 116.536 187.009 116.811 188.374 118.415C189.782 120.069 191.192 122.841 191.902 126.668L202.226 124.754L212.55 122.839C210.209 110.216 201.683 96.4644 186.696 95.5429L186.052 106.023ZM202.226 124.754L191.881 126.555L191.998 127.228L202.343 125.426L212.687 123.625L212.57 122.952L202.226 124.754ZM202.343 125.426L191.98 127.119C192.526 130.461 192.28 133.946 191.384 137.52L201.569 140.072L211.754 142.624C213.209 136.821 213.796 130.408 212.705 123.734L202.343 125.426ZM201.569 140.072L194.845 148.137C196.587 149.589 198.438 152.111 199.765 155.744L209.628 152.141L219.491 148.539C217.145 142.116 213.39 136.256 208.293 132.007L201.569 140.072ZM209.628 152.141L219.107 156.657C221.87 150.858 225.278 149.5 227 149.5V139V128.5C214.277 128.5 204.944 137.561 200.149 147.625L209.628 152.141ZM227 139V149.5C228.326 149.5 230.372 150.169 232.607 152.954C234.852 155.752 236.768 160.17 237.332 165.708L247.778 164.644L258.224 163.581C257.311 154.614 254.12 146.21 248.986 139.811C243.841 133.4 236.236 128.5 227 128.5V139ZM247.778 164.644L242.446 173.689C243.403 174.254 244.154 174.789 244.734 175.271L251.451 167.201L258.168 159.131C256.613 157.836 254.914 156.662 253.111 155.599L247.778 164.644ZM251.451 167.201L244.63 175.183L245.113 175.596L251.935 167.614L258.756 159.631L258.273 159.218L251.451 167.201ZM251.935 167.614L244.999 175.497C249.787 179.71 250.725 187.863 247.344 194.693L256.754 199.351L266.164 204.01C272.352 191.51 272.929 172.099 258.87 159.731L251.935 167.614ZM256.754 199.351L247.62 204.531C249.461 207.778 251.444 215.141 245.668 223.329L254.248 229.381L262.828 235.434C274.29 219.187 270.806 202.845 265.888 194.172L256.754 199.351ZM254.248 229.381L243.918 231.265C244.472 234.3 243.938 238.118 241.009 241.168L248.583 248.44L256.157 255.712C264.799 246.711 266.043 235.533 264.578 227.498L254.248 229.381ZM248.583 248.44L241.009 241.168C237.83 244.479 230.312 248.439 213.326 247.484L212.736 257.967L212.147 268.451C232.134 269.574 246.966 265.285 256.157 255.712L248.583 248.44ZM212.736 257.967L207.708 248.75C200.759 252.54 182.194 257.817 161.142 249.045L157.104 258.738L153.065 268.43C180.921 280.036 206.174 273.508 217.764 267.185L212.736 257.967ZM157.104 258.738L150.178 250.846C148.452 252.36 146.778 252.844 145.187 252.761L144.639 263.247L144.091 273.732C151.524 274.121 158.479 271.501 164.029 266.63L157.104 258.738ZM144.639 263.247L145.187 252.761C143.264 252.66 140.606 251.657 137.71 248.754L130.276 256.17L122.843 263.585C128.484 269.24 135.799 273.299 144.09 273.732L144.639 263.247ZM130.276 256.17L137.71 248.754C131.866 242.896 126.195 230.235 126.515 210.085L116.017 209.919L105.518 209.752C105.143 233.368 111.659 252.375 122.843 263.585L130.276 256.17ZM116.017 209.919L126.514 210.149L126.549 208.549L116.052 208.318L105.554 208.087L105.519 209.688L116.017 209.919ZM116.052 208.318L126.548 208.613C126.979 193.286 130.22 184.634 133.582 180.26L125.257 173.861L116.932 167.462C109.738 176.822 106.046 190.588 105.556 208.023L116.052 208.318ZM125.257 173.861L133.582 180.26C136.437 176.545 139.373 175.818 141.889 176.13L143.18 165.71L144.47 155.289C134.15 154.011 124.055 158.194 116.932 167.462L125.257 173.861ZM143.18 165.71L152.33 170.859C156.379 163.664 160.651 159.354 165.331 153.926L157.378 147.07L149.425 140.214C145.541 144.72 139.383 151.045 134.029 160.56L143.18 165.71ZM157.378 147.07L165.331 153.926C170.42 148.022 175.351 141.4 177.831 130.407L167.588 128.096L157.345 125.786C155.947 131.983 153.479 135.512 149.425 140.214L157.378 147.07ZM167.588 128.096L177.858 130.279L178.364 127.9L168.094 125.716L157.823 123.533L157.317 125.913L167.588 128.096ZM168.094 125.716L178.315 128.121L178.319 128.105L168.098 125.7L157.877 123.295L157.873 123.312L168.094 125.716ZM168.098 125.7L178.348 127.978L178.352 127.96L168.102 125.682L157.852 123.404L157.848 123.422L168.098 125.7Z" fill="#1372FB"/>
<path d="M170.772 127.549C176.023 101.324 195.525 105.071 199.276 125.3C201.697 138.361 194.738 151.422 188.089 160.047C221.66 157.199 241.405 162.742 249.533 169.507C258.534 176.999 258.534 190.486 253.284 199.477C256.534 203.973 260.634 216.111 251.033 228.699C253.533 238.439 249.232 257.32 212.028 254.923C203.767 259.776 181.39 266.373 156.455 255.194C142.907 269.673 118.335 252.739 119.015 209.966C119.554 176.049 132.873 166.116 144.781 169.049C154.511 150.434 166.842 147.175 170.772 127.549Z" fill="white"/>
<path d="M170.772 127.549L173.713 128.138V128.137L170.772 127.549ZM199.276 125.3L202.226 124.754V124.754L199.276 125.3ZM188.089 160.047L185.713 158.215L181.553 163.612L188.343 163.036L188.089 160.047ZM249.533 169.507L251.452 167.201L251.452 167.201L249.533 169.507ZM253.284 199.477L250.693 197.964L249.708 199.652L250.852 201.235L253.284 199.477ZM251.033 228.699L248.647 226.879L247.765 228.036L248.127 229.445L251.033 228.699ZM212.028 254.923L212.221 251.929L211.302 251.87L210.508 252.336L212.028 254.923ZM156.455 255.194L157.683 252.457L155.728 251.58L154.265 253.144L156.455 255.194ZM119.015 209.966L116.015 209.919V209.919L119.015 209.966ZM144.781 169.049L144.063 171.961L146.349 172.524L147.439 170.438L144.781 169.049ZM170.772 127.549L173.713 128.137C176.26 115.418 181.811 111.888 185.493 112.003C189.418 112.125 194.563 116.338 196.326 125.847L199.276 125.3L202.226 124.754C200.238 114.033 193.756 106.258 185.68 106.006C177.36 105.746 170.534 113.455 167.83 126.96L170.772 127.549ZM199.276 125.3L196.326 125.847C198.506 137.605 192.225 149.767 185.713 158.215L188.089 160.047L190.465 161.878C197.251 153.076 204.889 139.118 202.226 124.754L199.276 125.3ZM188.089 160.047L188.343 163.036C204.927 161.629 217.98 162.306 227.807 164.122C237.689 165.948 244.097 168.885 247.613 171.812L249.533 169.507L251.452 167.201C246.841 163.363 239.313 160.147 228.898 158.222C218.428 156.287 204.822 155.617 187.836 157.057L188.089 160.047ZM249.533 169.507L247.613 171.812C255.152 178.088 255.448 189.821 250.693 197.964L253.284 199.477L255.874 200.99C261.62 191.151 261.915 175.91 251.452 167.201L249.533 169.507ZM253.284 199.477L250.852 201.235C253.502 204.899 257.279 215.563 248.647 226.879L251.033 228.699L253.418 230.518C263.988 216.66 259.566 203.046 255.715 197.719L253.284 199.477ZM251.033 228.699L248.127 229.445C249.185 233.568 248.782 239.571 244.255 244.285C239.714 249.015 230.399 253.1 212.221 251.929L212.028 254.923L211.835 257.916C230.861 259.142 242.299 254.986 248.583 248.44C254.884 241.878 255.38 233.57 253.938 227.953L251.033 228.699ZM212.028 254.923L210.508 252.336C202.952 256.775 181.6 263.18 157.683 252.457L156.455 255.194L155.228 257.931C181.18 269.567 204.582 262.777 213.548 257.509L212.028 254.923ZM156.455 255.194L154.265 253.144C151.421 256.184 148.179 257.424 144.951 257.255C141.662 257.083 138.007 255.422 134.524 251.931C127.534 244.925 121.683 230.904 122.015 210.014L119.015 209.966L116.015 209.919C115.668 231.801 121.762 247.634 130.276 256.169C134.545 260.447 139.53 262.979 144.637 263.247C149.806 263.517 154.716 261.444 158.646 257.244L156.455 255.194ZM119.015 209.966L122.015 210.014C122.279 193.351 125.691 183.141 130.013 177.517C134.193 172.079 139.296 170.787 144.063 171.961L144.781 169.049L145.498 166.136C138.358 164.377 130.848 166.586 125.256 173.861C119.808 180.949 116.29 192.665 116.015 209.919L119.015 209.966ZM144.781 169.049L147.439 170.438C152.103 161.517 157.303 156.383 162.23 150.629C167.196 144.829 171.609 138.648 173.713 128.138L170.772 127.549L167.83 126.96C166.005 136.075 162.287 141.337 157.673 146.727C153.019 152.162 147.189 157.966 142.122 167.659L144.781 169.049Z" fill="black"/>
<path d="M147.503 164.445C137.003 183.176 136.003 202.407 138.503 211.648" stroke="black" stroke-width="6"/>
<path d="M157.256 255.855C144.655 248.062 140.504 239.121 140.004 235.625" stroke="black" stroke-width="6"/>
<path d="M191 142C195.551 142 199.979 144.631 203.392 149.507C206.798 154.373 209 161.256 209 169C209 176.744 206.798 183.627 203.392 188.493C199.979 193.369 195.551 196 191 196C186.449 196 182.021 193.369 178.608 188.493C175.202 183.627 173 176.744 173 169C173 161.256 175.202 154.373 178.608 149.507C182.021 144.631 186.449 142 191 142Z" fill="white" stroke="black" stroke-width="6"/>
<path d="M195.5 149.5C197.018 149.5 198.821 150.473 200.394 152.943C201.943 155.379 203 158.926 203 163C203 167.074 201.943 170.621 200.394 173.057C198.821 175.527 197.018 176.5 195.5 176.5C193.982 176.5 192.179 175.527 190.606 173.057C189.057 170.621 188 167.074 188 163C188 158.926 189.057 155.379 190.606 152.943C192.179 150.473 193.982 149.5 195.5 149.5Z" fill="black" stroke="black" stroke-width="6"/>
<path d="M227 142C231.551 142 235.979 144.631 239.392 149.507C242.798 154.373 245 161.256 245 169C245 176.744 242.798 183.627 239.392 188.493C235.979 193.369 231.551 196 227 196C222.449 196 218.021 193.369 214.608 188.493C211.202 183.627 209 176.744 209 169C209 161.256 211.202 154.373 214.608 149.507C218.021 144.631 222.449 142 227 142Z" fill="white" stroke="black" stroke-width="6"/>
<path d="M234.5 148C236.018 148 237.821 148.973 239.394 151.443C240.943 153.879 242 157.426 242 161.5C242 165.574 240.943 169.121 239.394 171.557C237.821 174.027 236.018 175 234.5 175C232.982 175 231.179 174.027 229.606 171.557C228.057 169.121 227 165.574 227 161.5C227 157.426 228.057 153.879 229.606 151.443C231.179 148.973 232.982 148 234.5 148Z" fill="black" stroke="black" stroke-width="6"/>
<path d="M188 217C196.55 225 207.95 225 216.5 217" stroke="black" stroke-width="6"/>
<path d="M191.75 205C191.75 213.25 187.25 221.5 176.75 221.5" stroke="black" stroke-width="6"/>
</g>
<defs>
<clipPath id="clip0_332_5414">
<rect width="375" height="374" fill="white"/>
</clipPath>
</defs>
</svg>
