<svg width="200" height="240" viewBox="0 0 200 240" fill="none" xmlns="http://www.w3.org/2000/svg">
<path d="M98.0661 32.5045L98.3391 23.7588L98.3387 23.7588L98.0661 32.5045ZM111.854 48.1276L120.475 46.6284L120.466 46.5804L120.458 46.5325L111.854 48.1276ZM111.952 48.6891L120.587 47.279L120.58 47.2344L120.572 47.1899L111.952 48.6891ZM111.305 60.8913L102.818 58.7639L101.482 64.0943L105.703 67.6127L111.305 60.8913ZM118.023 70.9499L109.804 73.9521L116.957 93.5315L125.922 74.7134L118.023 70.9499ZM132.5 59.9997V51.2497H132.5L132.5 59.9997ZM149.815 81.3688L141.11 82.2553L141.559 86.6588L145.372 88.9066L149.815 81.3688ZM152.877 83.4997L158.578 76.8619L158.526 76.8178L158.474 76.7746L152.877 83.4997ZM153.278 83.8444L159.058 77.2749L159.019 77.2405L158.979 77.2066L153.278 83.8444ZM157.294 110.292L149.452 106.41L147.392 110.57L149.682 114.608L157.294 110.292ZM155.207 135.317L148.057 130.273L145.94 133.274L146.599 136.887L155.207 135.317ZM150.486 151.199L156.798 157.259L156.798 157.259L150.486 151.199ZM120.613 159.137L121.104 150.401L118.613 150.261L116.423 151.456L120.613 159.137ZM74.2526 159.782L77.6177 151.705L72.5819 149.607L68.4814 153.205L74.2526 159.782ZM63.864 163.539L63.4065 172.277L63.4068 172.277L63.864 163.539ZM51.8962 157.64L45.7016 163.82L45.7017 163.82L51.8962 157.64ZM40.0124 119.099L31.2645 118.907L31.2639 118.934L31.2635 118.96L40.0124 119.099ZM40.0417 117.765L31.2951 117.519L31.2944 117.546L31.2938 117.573L40.0417 117.765ZM47.7126 89.0504L40.7749 83.7184L40.7747 83.7186L47.7126 89.0504ZM62.6491 82.2565L61.5742 90.9402L67.3969 91.661L70.2744 86.548L62.6491 82.2565ZM74.7263 66.4381L81.3727 72.1292L81.3727 72.1291L74.7263 66.4381ZM83.1921 49.9655L74.6327 48.1491L74.6223 48.1983L74.6124 48.2475L83.1921 49.9655ZM83.4128 48.9254L74.8765 47.0033L74.8646 47.0561L74.8534 47.1091L83.4128 48.9254ZM98.0661 32.5045L97.7931 41.2503C98.2329 41.264 99.1065 41.4579 100.256 42.7813C101.447 44.1538 102.651 46.4872 103.251 49.7227L111.854 48.1276L120.458 46.5325C118.486 35.8992 111.168 24.1593 98.3391 23.7588L98.0661 32.5045ZM111.854 48.1276L103.234 49.6268L103.331 50.1884L111.952 48.6891L120.572 47.1899L120.475 46.6284L111.854 48.1276ZM111.952 48.6891L103.316 50.0993C103.771 52.8816 103.565 55.7842 102.818 58.7639L111.305 60.8913L119.793 63.0186C121.004 58.1853 121.496 52.8419 120.587 47.279L111.952 48.6891ZM111.305 60.8913L105.703 67.6127C107.155 68.823 108.699 70.9254 109.804 73.9521L118.023 70.9499L126.242 67.9476C124.286 62.5937 121.156 57.7105 116.908 54.1698L111.305 60.8913ZM118.023 70.9499L125.922 74.7134C128.225 69.8815 131.064 68.7497 132.5 68.7497L132.5 59.9997L132.5 51.2497C121.898 51.2499 114.12 58.7989 110.124 67.1863L118.023 70.9499ZM132.5 59.9997V68.7497C133.605 68.7497 135.31 69.3077 137.172 71.6283C139.043 73.9596 140.64 77.6408 141.11 82.2553L149.815 81.3688L158.52 80.4823C157.759 73.0103 155.099 66.0069 150.821 60.6753C146.534 55.3329 140.196 51.2497 132.5 51.2497V59.9997ZM149.815 81.3688L145.372 88.9066C146.17 89.3772 146.796 89.8231 147.279 90.2247L152.877 83.4997L158.474 76.7746C157.177 75.6947 155.761 74.7169 154.259 73.8311L149.815 81.3688ZM152.877 83.4997L147.176 90.1375L147.577 90.4822L153.278 83.8444L158.979 77.2066L158.578 76.8619L152.877 83.4997ZM153.278 83.8444L147.498 90.4139C151.489 93.9244 152.27 100.718 149.452 106.41L157.294 110.292L165.135 114.174C170.291 103.758 170.774 87.5823 159.058 77.2749L153.278 83.8444ZM157.294 110.292L149.682 114.608C151.217 117.314 152.87 123.451 148.057 130.273L155.207 135.317L162.357 140.361C171.909 126.821 169.003 113.202 164.905 105.975L157.294 110.292ZM155.207 135.317L146.599 136.887C147.06 139.416 146.615 142.597 144.174 145.139L150.486 151.199L156.798 157.259C163.999 149.758 165.036 140.443 163.815 133.747L155.207 135.317ZM150.486 151.199L144.174 145.139C141.526 147.897 135.26 151.197 121.104 150.401L120.613 159.137L120.122 167.874C136.777 168.81 149.138 165.237 156.798 157.259L150.486 151.199ZM120.613 159.137L116.423 151.456C110.631 154.615 95.1605 159.013 77.6177 151.705L74.2526 159.782L70.8876 167.859C94.1013 177.53 115.145 172.087 124.803 166.819L120.613 159.137ZM74.2526 159.782L68.4814 153.205C67.0441 154.466 65.6476 154.87 64.3211 154.801L63.864 163.539L63.4068 172.277C69.6007 172.601 75.3975 170.418 80.0239 166.359L74.2526 159.782ZM63.864 163.539L64.3214 154.801C62.7196 154.717 60.5047 153.88 58.0907 151.46L51.8962 157.64L45.7017 163.82C50.4017 168.531 56.4969 171.915 63.4065 172.277L63.864 163.539ZM51.8962 157.64L58.0908 151.461C53.2205 146.579 48.4947 136.028 48.7613 119.238L40.0124 119.099L31.2635 118.96C30.951 138.64 36.3825 154.479 45.7016 163.82L51.8962 157.64ZM40.0124 119.099L48.7603 119.291L48.7896 117.957L40.0417 117.765L31.2938 117.573L31.2645 118.907L40.0124 119.099ZM40.0417 117.765L48.7882 118.011C49.1475 105.24 51.8484 98.0284 54.6505 94.3822L47.7126 89.0504L40.7747 83.7186C34.7807 91.5183 31.7038 102.991 31.2951 117.519L40.0417 117.765ZM47.7126 89.0504L54.6503 94.3825C57.0295 91.2868 59.4776 90.6807 61.5742 90.9402L62.6491 82.2565L63.724 73.5728C55.1241 72.5083 46.7107 75.9951 40.7749 83.7184L47.7126 89.0504ZM62.6491 82.2565L70.2744 86.548C73.7367 80.3961 77.367 76.8073 81.3727 72.1292L74.7263 66.4381L68.0799 60.7471C64.8635 64.5034 59.5728 69.8822 55.0238 77.965L62.6491 82.2565ZM74.7263 66.4381L81.3727 72.1291C85.7306 67.0396 89.8434 61.3139 91.7718 51.6835L83.1921 49.9655L74.6124 48.2475C73.4987 53.8092 71.4131 56.8542 68.0798 60.7471L74.7263 66.4381ZM83.1921 49.9655L91.7515 51.7818L91.9722 50.7418L83.4128 48.9254L74.8534 47.1091L74.6327 48.1491L83.1921 49.9655ZM83.4128 48.9254L91.949 50.8476C92.9261 46.5087 94.3919 43.8768 95.62 42.5125C96.7185 41.2921 97.4216 41.2387 97.7935 41.2503L98.0661 32.5045L98.3387 23.7588C85.032 23.3441 77.5311 35.2146 74.8765 47.0033L83.4128 48.9254Z" fill="white"/>
<path d="M85.6435 50.4568C90.0191 28.6037 106.271 31.7256 109.396 48.5838C111.414 59.4688 105.611 70.3514 100.07 77.5389C128.049 75.1653 144.504 79.785 151.277 85.4227C158.778 91.6665 158.778 102.906 154.402 110.398C157.111 114.145 160.528 124.259 152.527 134.749C154.611 142.866 151.026 158.6 120.022 156.602C113.138 160.647 94.4903 166.144 73.7118 156.828C62.4217 168.894 41.9464 154.783 42.5126 119.139C42.9617 90.8751 54.0606 82.5973 63.9833 85.0408C72.0917 69.5285 82.3687 66.8122 85.6435 50.4568Z" fill="white"/>
<path d="M85.6435 50.4568L83.1921 49.966V49.966L85.6435 50.4568ZM109.396 48.5838L111.854 48.1281V48.1281L109.396 48.5838ZM100.07 77.5389L98.0903 76.0124L94.6229 80.51L100.282 80.0299L100.07 77.5389ZM151.277 85.4227L152.877 83.5012L152.877 83.5012L151.277 85.4227ZM154.402 110.398L152.243 109.138L151.422 110.544L152.376 111.863L154.402 110.398ZM152.527 134.749L150.539 133.233L149.804 134.196L150.106 135.37L152.527 134.749ZM120.022 156.602L120.183 154.108L119.417 154.058L118.756 154.447L120.022 156.602ZM73.7118 156.828L74.7346 154.547L73.1059 153.816L71.8864 155.12L73.7118 156.828ZM42.5126 119.139L40.0129 119.1L40.0129 119.1L42.5126 119.139ZM63.9833 85.0408L63.3855 87.4683L65.2902 87.9373L66.1989 86.1989L63.9833 85.0408ZM85.6435 50.4568L88.0948 50.9477C90.2172 40.3481 94.8428 37.4066 97.9107 37.5024C101.182 37.6045 105.469 41.1149 106.938 49.0395L109.396 48.5838L111.854 48.1281C110.198 39.1945 104.797 32.7149 98.0667 32.5048C91.1335 32.2884 85.4454 38.7125 83.1921 49.966L85.6435 50.4568ZM109.396 48.5838L106.938 49.0395C108.755 58.8379 103.518 68.9723 98.0903 76.0124L100.07 77.5389L102.05 79.0653C107.705 71.7305 114.074 60.0996 111.854 48.1281L109.396 48.5838ZM100.07 77.5389L100.282 80.0299C114.103 78.8573 124.981 79.4215 133.172 80.9349C141.407 82.4567 146.747 84.9049 149.678 87.3441L151.277 85.4227L152.877 83.5012C149.034 80.3028 142.761 77.6222 134.08 76.0182C125.355 74.4058 114.016 73.8468 99.8589 75.0478L100.07 77.5389ZM151.277 85.4227L149.678 87.3441C155.96 92.5737 156.206 102.351 152.243 109.138L154.402 110.398L156.561 111.659C161.349 103.46 161.596 90.7594 152.877 83.5012L151.277 85.4227ZM154.402 110.398L152.376 111.863C154.584 114.917 157.733 123.802 150.539 133.233L152.527 134.749L154.515 136.265C163.324 124.717 159.637 113.372 156.428 108.933L154.402 110.398ZM152.527 134.749L150.106 135.37C150.988 138.806 150.651 143.809 146.879 147.737C143.095 151.679 135.332 155.084 120.183 154.108L120.022 156.602L119.862 159.097C135.717 160.119 145.249 156.655 150.486 151.2C155.736 145.732 156.15 138.808 154.949 134.127L152.527 134.749ZM120.022 156.602L118.756 154.447C112.459 158.146 94.6653 163.483 74.7346 154.547L73.7118 156.828L72.689 159.109C94.3153 168.806 113.817 163.148 121.289 158.758L120.022 156.602ZM73.7118 156.828L71.8864 155.12C69.5162 157.653 66.8149 158.686 64.125 158.545C61.384 158.402 58.3383 157.018 55.436 154.109C49.6119 148.271 44.7357 136.587 45.0123 119.179L42.5126 119.139L40.0129 119.1C39.7232 137.335 44.8017 150.529 51.8962 157.64C55.4532 161.206 59.6079 163.316 63.8637 163.538C68.1705 163.764 72.2624 162.036 75.5373 158.536L73.7118 156.828ZM42.5126 119.139L45.0123 119.179C45.2329 105.293 48.0753 96.785 51.6776 92.0981C55.1603 87.5667 59.4126 86.4899 63.3855 87.4683L63.9833 85.0408L64.5811 82.6133C58.6313 81.1481 52.3729 82.9885 47.7132 89.0512C43.173 94.9584 40.2414 104.721 40.0129 119.1L42.5126 119.139ZM63.9833 85.0408L66.1989 86.1989C70.085 78.7643 74.4191 74.4863 78.525 69.6909C82.6636 64.8573 86.3411 59.7065 88.0948 50.9477L85.6435 50.4568L83.1921 49.966C81.6711 57.5625 78.5727 61.9475 74.727 66.439C70.8486 70.9687 65.99 75.805 61.7677 83.8827L63.9833 85.0408Z" fill="black"/>
<path d="M66.2527 81.2041C57.5027 96.8137 56.6693 112.84 58.7527 120.54" stroke="black" stroke-width="5"/>
<path d="M74.3801 157.379C63.8787 150.885 60.4199 143.434 60.0032 140.521" stroke="black" stroke-width="5"/>
<path d="M102.5 62.5C106.293 62.5 109.982 64.6929 112.826 68.7559C115.665 72.811 117.5 78.5465 117.5 85C117.5 91.4535 115.665 97.189 112.826 101.244C109.982 105.307 106.293 107.5 102.5 107.5C98.7072 107.5 95.018 105.307 92.1738 101.244C89.3352 97.189 87.5 91.4535 87.5 85C87.5 78.5465 89.3352 72.811 92.1738 68.7559C95.018 64.6929 98.7072 62.5 102.5 62.5Z" fill="white" stroke="black" stroke-width="5"/>
<path d="M106.25 68.75C107.515 68.75 109.018 69.5602 110.328 71.6191C111.62 73.6485 112.5 76.6051 112.5 80C112.5 83.3949 111.62 86.3515 110.328 88.3809C109.018 90.4398 107.515 91.25 106.25 91.25C104.985 91.25 103.482 90.4398 102.172 88.3809C100.88 86.3515 100 83.3949 100 80C100 76.6051 100.88 73.6485 102.172 71.6191C103.482 69.5602 104.985 68.75 106.25 68.75Z" fill="black" stroke="black" stroke-width="5"/>
<path d="M132.5 62.5C136.293 62.5 139.982 64.6929 142.826 68.7559C145.665 72.811 147.5 78.5465 147.5 85C147.5 91.4535 145.665 97.189 142.826 101.244C139.982 105.307 136.293 107.5 132.5 107.5C128.707 107.5 125.018 105.307 122.174 101.244C119.335 97.189 117.5 91.4535 117.5 85C117.5 78.5465 119.335 72.811 122.174 68.7559C125.018 64.6929 128.707 62.5 132.5 62.5Z" fill="white" stroke="black" stroke-width="5"/>
<path d="M138.75 67.5C140.015 67.5 141.518 68.3102 142.828 70.3691C144.12 72.3985 145 75.3551 145 78.75C145 82.1449 144.12 85.1015 142.828 87.1309C141.518 89.1898 140.015 90 138.75 90C137.485 90 135.982 89.1898 134.672 87.1309C133.38 85.1015 132.5 82.1449 132.5 78.75C132.5 75.3551 133.38 72.3985 134.672 70.3691C135.982 68.3102 137.485 67.5 138.75 67.5Z" fill="black" stroke="black" stroke-width="5"/>
<path d="M100 125C107.125 131.667 116.625 131.667 123.75 125" stroke="black" stroke-width="5"/>
<path d="M103.125 115C103.125 121.875 99.375 128.75 90.625 128.75" stroke="black" stroke-width="5"/>
<path d="M151.492 197.672C155.521 197.673 158.393 199.071 159.945 201.958L160.091 202.241L160.095 202.251L160.099 202.259C160.874 204.008 161.148 205.847 160.925 207.767L160.926 207.768C160.728 209.673 160.145 211.456 159.181 213.113L159.182 213.114C157.528 216.003 155.201 217.925 152.211 218.847L152.212 218.848C149.371 219.731 146.514 219.423 143.666 217.961C144.21 219.102 144.598 220.318 144.827 221.608L144.892 221.969C145.195 223.773 145.175 225.473 144.824 227.063C144.469 228.759 143.654 230.198 142.386 231.364C141.117 232.553 139.526 233.14 137.651 233.14C136.087 233.14 134.729 232.791 133.602 232.068C132.474 231.344 131.614 230.268 131.01 228.871V228.87C129.932 226.363 129.843 223.356 130.682 219.883C128.871 222.291 126.895 224.467 124.754 226.408L123.991 227.082C119.364 231.082 114.89 233.139 110.578 233.139C108.916 233.139 107.494 232.61 106.346 231.543L106.345 231.544C105.183 230.485 104.423 229.062 104.048 227.31L104.047 227.306C103.574 224.995 103.742 222.399 104.519 219.532L104.52 219.527L104.662 219.042C106.125 214.202 109.072 209.422 113.467 204.696C113.104 204.486 112.812 204.225 112.624 203.897C112.318 203.365 112.343 202.764 112.585 202.167C113.119 200.821 114.58 199.778 116.729 198.957L117.153 198.8C119.291 198.045 121.727 197.673 124.453 197.672C125.112 197.673 125.702 197.801 126.196 198.089C126.691 198.377 127.056 198.807 127.297 199.351C127.596 199.984 127.761 200.693 127.8 201.471C130.059 198.993 132.364 197.673 134.716 197.672C135.936 197.672 136.936 198.037 137.617 198.84C138.284 199.628 138.574 200.758 138.574 202.139C138.574 203.664 138.251 205.373 137.621 207.265C138.115 206.737 138.631 206.217 139.172 205.71L139.177 205.704L139.184 205.699L140.384 204.646C140.053 204.433 139.788 204.174 139.619 203.856C139.331 203.316 139.373 202.716 139.628 202.122L139.63 202.118L139.755 201.862C140.434 200.601 141.917 199.617 144.026 198.846H144.027L144.436 198.704C146.503 198.013 148.858 197.672 151.492 197.672ZM134.711 199.094C133.512 199.096 132.269 199.556 130.974 200.533L130.973 200.534C129.708 201.483 128.573 202.622 127.568 203.952C127.478 204.484 127.286 205.199 126.999 206.083L126.996 206.092C125.451 210.542 122.6 214.933 118.472 219.273C120.18 219.582 121.446 220.181 122.14 221.162L122.415 221.55L121.312 222.407L121.01 221.992C120.457 221.228 119.193 220.679 116.977 220.514H116.972C114.752 220.325 113.261 220.529 112.397 221.022L111.958 221.274L111.252 219.98L111.718 219.752C112.998 219.124 114.677 218.905 116.714 219.043C121.142 214.603 124.116 210.13 125.664 205.625C125.942 204.813 126.15 204.015 126.288 203.232C126.421 202.455 126.421 201.665 126.287 200.861L126.285 200.845C126.179 200.062 125.888 199.6 125.48 199.343C125.215 199.185 124.879 199.094 124.453 199.094C122.565 199.094 120.867 199.275 119.357 199.63L118.721 199.793C117.04 200.26 115.771 200.844 114.886 201.53L114.884 201.533C114.474 201.845 114.191 202.139 114.012 202.411L113.943 202.525C113.805 202.771 113.794 202.983 113.885 203.206C113.987 203.381 114.254 203.596 114.862 203.77L115.288 203.893L115.221 204.292L115.529 204.599L115.191 204.95C110.342 209.988 107.261 214.973 105.907 219.9C105.159 222.611 105.017 224.984 105.449 227.031L105.511 227.302C105.821 228.551 106.356 229.542 107.103 230.297L107.267 230.455L107.276 230.464L107.438 230.614C108.263 231.344 109.299 231.716 110.578 231.716C114.973 231.716 119.671 229.381 124.68 224.56C127.759 221.557 130.412 218.181 132.645 214.435C133.091 213.518 133.59 212.624 134.14 211.753C134.172 211.691 134.206 211.63 134.238 211.568C136.543 207.052 137.455 203.668 137.121 201.351C136.989 200.545 136.712 199.998 136.337 199.651C135.965 199.307 135.441 199.105 134.711 199.094ZM151.492 199.095C149.603 199.095 147.905 199.275 146.395 199.63L145.76 199.793C144.078 200.26 142.81 200.845 141.926 201.53L141.923 201.533C141.513 201.845 141.23 202.139 141.052 202.411L140.982 202.525C140.844 202.771 140.833 202.983 140.924 203.206C141.025 203.381 141.292 203.597 141.901 203.771L142.4 203.914L142.261 204.329L142.583 204.65L142.144 204.996C139.328 207.22 137.037 209.763 135.271 212.625C135.039 213.065 134.798 213.515 134.542 213.969C134.384 214.248 134.224 214.523 134.063 214.797C133.731 215.462 133.423 216.144 133.141 216.84L133.142 216.841C131.645 220.585 131.212 223.822 131.783 226.574L131.91 227.117L131.911 227.119L132.043 227.583C132.373 228.633 132.849 229.465 133.459 230.098C134.066 230.729 134.823 231.181 135.744 231.447L136.15 231.549L136.158 231.551L136.51 231.624C136.868 231.685 137.248 231.716 137.651 231.716C139.385 231.716 140.749 231.134 141.79 229.985L141.985 229.76C142.936 228.624 143.498 227.272 143.667 225.688L143.696 225.367C143.822 223.751 143.608 222.042 143.043 220.239L143.042 220.238C142.444 218.307 141.483 216.685 140.162 215.364L139.811 215.013L140.162 214.662L140.447 214.376L140.8 214.024L141.15 214.376C143.992 217.218 147.059 218.344 150.38 217.847L150.768 217.781C152.693 217.412 154.389 216.505 155.864 215.051L156.156 214.755C157.589 213.266 158.565 211.646 159.098 209.897C159.669 208.026 159.725 206.161 159.269 204.295L159.267 204.288C158.843 202.433 157.873 201.087 156.356 200.208V200.209C155.093 199.477 153.481 199.095 151.492 199.095ZM151.587 206.022L151.979 206.13L152.453 206.259L152.33 206.733C152.147 207.438 151.801 208.199 151.308 209.012L151.304 209.018C150.814 209.803 150.315 210.454 149.804 210.964L149.454 211.316L148.465 210.328L148.816 209.976C149.234 209.559 149.663 208.997 150.102 208.281C150.538 207.569 150.825 206.934 150.976 206.373L151.105 205.891L151.587 206.022Z" fill="white"/>
<path d="M45.4105 198.124H70.92C69.8604 201.647 68.5757 204.799 67.0658 207.58C68.2578 208.375 69.1452 209.368 69.728 210.561C70.3107 211.726 70.6021 212.984 70.6021 214.335C70.6021 216.084 70.1783 217.779 69.3306 219.421H63.887C65.1055 217.541 65.7148 215.845 65.7148 214.335C65.7148 213.17 65.3174 212.229 64.5228 211.514C61.397 215.594 57.5825 217.925 53.0793 218.507C52.4965 218.587 51.927 218.627 51.3707 218.627C49.9932 218.627 48.7879 218.375 47.7548 217.872C46.7218 217.368 45.9271 216.693 45.3708 215.845C44.8145 214.998 44.5364 214.097 44.5364 213.143C44.5364 212.084 44.8675 211.064 45.5297 210.084C46.2184 209.077 47.278 208.203 48.7085 207.461C50.1389 206.72 51.9137 206.216 54.0329 205.951C55.7547 205.713 57.3043 205.594 58.6818 205.594C60.1387 205.594 61.4632 205.713 62.6552 205.951C63.3175 204.653 63.8738 203.501 64.3241 202.494H45.4105V198.124ZM74.2179 229.792H41.9536V225.421H55.7415V218.507H60.5096V225.421H74.2179V229.792ZM52.4435 214.216C55.2249 213.819 57.6752 212.428 59.7944 210.044L58.7215 210.004C57.662 210.004 56.311 210.11 54.6686 210.322C52.9468 210.534 51.6223 210.918 50.6952 211.474C49.7681 212.004 49.3045 212.547 49.3045 213.104C49.3045 213.448 49.4899 213.739 49.8608 213.978C50.2581 214.19 50.8011 214.296 51.4899 214.296L52.4435 214.216ZM101.291 232.097C99.2778 232.6 97.1851 232.984 95.013 233.249C92.8673 233.54 90.7879 233.686 88.7747 233.686C86.3906 233.686 84.298 233.461 82.4967 233.01C80.7219 232.587 79.4106 231.911 78.563 230.984C77.7948 230.136 77.2517 229.169 76.9339 228.083C76.616 226.997 76.457 225.766 76.457 224.388C76.457 223.302 76.5498 221.898 76.7352 220.176L81.5033 220.653C81.3444 222.163 81.2649 223.434 81.2649 224.468C81.2649 226.269 81.5298 227.434 82.0596 227.964C82.4569 228.388 83.2384 228.706 84.4039 228.918C85.5695 229.156 86.9867 229.275 88.6555 229.275C90.5892 229.275 92.6687 229.13 94.8938 228.838C97.1454 228.547 99.2778 228.123 101.291 227.567V232.097ZM100.298 197.567V222.282H95.5295V207.859H90.8012V203.09H95.5295V197.567H100.298ZM84.5629 221.448C85.2781 220.68 85.9668 219.527 86.629 217.991C87.3178 216.454 87.6621 215.011 87.6621 213.66C87.6621 211.938 87.0794 210.68 85.9138 209.885C85.49 211.925 84.5761 213.554 83.1722 214.772C81.7682 215.991 79.7682 216.6 77.1723 216.6C75.9537 216.6 74.8809 216.362 73.9538 215.885C73.0531 215.408 72.3512 214.772 71.8479 213.978C71.371 213.156 71.1326 212.282 71.1326 211.355C71.1326 210.349 71.4373 209.368 72.0465 208.415C72.6558 207.461 73.5829 206.64 74.8279 205.951C76.0994 205.263 77.6623 204.812 79.5166 204.6L81.4238 204.441V198.6H86.192V204.918C88.3906 205.501 89.98 206.574 90.9601 208.137C91.9402 209.7 92.4303 211.527 92.4303 213.62C92.4303 215.024 92.2448 216.428 91.874 217.832C91.5031 219.209 91.0396 220.415 90.4833 221.448H84.5629ZM77.212 212.229C78.51 212.229 79.4769 211.964 80.1126 211.435C80.7484 210.878 81.1457 210.031 81.3046 208.892L80.0729 208.971C78.7484 209.104 77.7153 209.408 76.9736 209.885C76.2319 210.362 75.861 210.839 75.861 211.315C75.861 211.58 75.9802 211.806 76.2186 211.991C76.457 212.15 76.7882 212.229 77.212 212.229Z" fill="white"/>
</svg>
