<svg width="187" height="116" viewBox="0 0 187 116" fill="none" xmlns="http://www.w3.org/2000/svg">
<path d="M155.59 0C168.687 0.000105245 178.027 4.57375 183.071 14.0142L183.544 14.9406L183.56 14.9723L183.572 15.0009C186.09 20.7209 186.981 26.736 186.256 33.0159L186.259 33.0191C185.616 39.2479 183.722 45.0784 180.589 50.498L180.592 50.5011C175.213 59.952 167.648 66.2393 157.927 69.2554L157.93 69.2586C148.697 72.1469 139.41 71.134 130.151 66.3523C131.92 70.086 133.181 74.0626 133.925 78.282L134.137 79.4654C135.12 85.366 135.056 90.9251 133.916 96.1257C132.761 101.672 130.112 106.376 125.991 110.191C121.865 114.081 116.693 116 110.598 116C105.513 116 101.098 114.859 97.4353 112.494C93.7682 110.127 90.9703 106.607 89.0058 102.037V102.033C85.0037 92.6658 85.1988 81.1672 89.2928 67.7008V67.6976L89.7501 66.2445C94.585 51.262 103.195 37.9398 115.54 26.2865L115.559 26.2674L115.581 26.2516L119.479 22.8059C118.403 22.1097 117.544 21.2631 116.994 20.2233C116.059 18.456 116.195 16.4931 117.022 14.5504L117.029 14.5377L117.435 13.7001C119.643 9.57652 124.464 6.36084 131.321 3.83906H131.324L132.655 3.37266C139.373 1.11326 147.026 0 155.59 0ZM155.59 4.6513C149.45 4.6513 143.931 5.23918 139.022 6.3995L136.956 6.93252C131.491 8.46 127.368 10.3733 124.493 12.615L124.484 12.6245C123.15 13.6465 122.231 14.6081 121.652 15.4959L121.425 15.8702C120.975 16.6741 120.939 17.367 121.235 18.0944C121.563 18.6679 122.434 19.3749 124.414 19.9441L126.035 20.4105L129 21L126.628 22.8186L125.203 23.9513C111.773 34.6219 102.027 47.5307 95.9374 62.691L95.9405 62.6941C91.0724 74.9386 89.6645 85.5225 91.5192 94.5235L91.9323 96.3002L91.9355 96.3066L92.3644 97.8231C93.4378 101.259 94.9871 103.982 96.9686 106.053C98.9426 108.116 101.405 109.593 104.398 110.464L105.717 110.8L105.742 110.806L106.887 111.041C108.052 111.243 109.289 111.345 110.598 111.346C116.234 111.346 120.667 109.441 124.052 105.682L124.685 104.946C127.777 101.23 129.604 96.8073 130.154 91.6267L130.248 90.5765C130.657 85.2907 129.963 79.7042 128.126 73.8052L128.123 73.802C126.18 67.4864 123.055 62.1842 118.76 57.862L117.618 56.7134L118.76 55.5649L119.687 54.6289L120.832 53.4804L121.973 54.6289C131.213 63.9241 141.182 67.6085 151.976 65.9843L153.238 65.7654C159.494 64.5584 165.008 61.5955 169.804 56.8403L170.753 55.8727C175.412 50.9996 178.584 45.7021 180.318 39.9802C182.172 33.8606 182.356 27.7634 180.876 21.6574L180.87 21.6352C179.489 15.5696 176.337 11.1668 171.406 8.29047V8.29365C167.298 5.9011 162.056 4.65135 155.59 4.6513ZM155.9 27.3081L157.177 27.6603L158.716 28.0823L158.315 29.6338C157.721 31.9379 156.597 34.4261 154.994 37.0866L154.982 37.1057C153.388 39.6717 151.765 41.8041 150.106 43.4734L148.965 44.622L145.751 41.3889L146.893 40.2404C148.25 38.8747 149.647 37.0372 151.075 34.6943C152.493 32.3667 153.425 30.2885 153.916 28.4535L154.335 26.8798L155.9 27.3081Z" fill="#F9FAFB"/>
<path fill-rule="evenodd" clip-rule="evenodd" d="M155.59 4.6513C149.45 4.6513 143.931 5.23918 139.022 6.3995L136.956 6.93252C131.491 8.46 127.368 10.3733 124.493 12.615L124.484 12.6245C123.15 13.6465 122.231 14.6081 121.652 15.4959L121.425 15.8702C120.975 16.6741 120.939 17.367 121.235 18.0944C121.563 18.6679 122.434 19.3749 124.414 19.9441L126.035 20.4105L129 21L126.628 22.8186L125.203 23.9513C111.773 34.6219 102.027 47.5307 95.9374 62.691L95.9405 62.6941C91.0724 74.9386 89.6645 85.5225 91.5192 94.5235L91.9323 96.3002L91.9355 96.3066L92.3644 97.8231C93.4378 101.259 94.9871 103.982 96.9686 106.053C98.9426 108.116 101.405 109.593 104.398 110.464L105.717 110.8L105.742 110.806L106.887 111.041C108.052 111.243 109.289 111.345 110.598 111.346C116.234 111.346 120.667 109.441 124.052 105.682L124.685 104.946C127.777 101.23 129.604 96.8073 130.154 91.6267L130.248 90.5765C130.657 85.2907 129.963 79.7042 128.126 73.8052L128.123 73.802C126.18 67.4864 123.055 62.1842 118.76 57.862L117.618 56.7134L118.76 55.5649L119.687 54.6289L120.832 53.4804L121.973 54.6289C131.213 63.9241 141.182 67.6085 151.976 65.9843L153.238 65.7654C159.494 64.5584 165.008 61.5955 169.804 56.8403L170.753 55.8727C175.412 50.9996 178.584 45.7021 180.318 39.9802C182.172 33.8606 182.356 27.7634 180.876 21.6574L180.87 21.6352C179.489 15.5696 176.337 11.1668 171.406 8.29047V8.29365C167.298 5.9011 162.056 4.65135 155.59 4.6513ZM157.177 27.6603L155.9 27.3081L154.335 26.8798L153.916 28.4535C153.425 30.2885 152.493 32.3667 151.075 34.6943C149.647 37.0372 148.25 38.8747 146.893 40.2404L145.751 41.3889L148.965 44.622L150.106 43.4734C151.765 41.8041 153.388 39.6717 154.982 37.1057L154.994 37.0866C156.597 34.4261 157.721 31.9379 158.315 29.6338L158.716 28.0823L157.177 27.6603Z" fill="#1372FB"/>
<path d="M101.056 0C105.024 0 108.272 1.19106 110.485 3.82003C112.654 6.39724 113.597 10.0898 113.597 14.6075C113.597 24.9307 109.135 37.8593 100.488 53.2995C91.5473 69.2254 80.9418 82.7925 68.6684 93.9809L66.1897 96.186C51.1476 109.27 36.6028 116 22.5852 116C17.1818 116 12.5612 114.27 8.82928 110.778L8.82613 110.781C5.04796 107.317 2.57878 102.664 1.35845 96.9348L1.3553 96.9221C-0.180101 89.3609 0.363494 80.8697 2.89109 71.4922L2.89424 71.4764L3.35467 69.89C8.11123 54.0627 17.6895 38.4295 31.9766 22.9709C30.7974 22.2826 29.848 21.4292 29.2361 20.3566C28.243 18.6152 28.324 16.6538 29.1099 14.6995C30.8479 10.2962 35.5961 6.88636 42.582 4.20076L43.9602 3.68994C50.9094 1.21823 58.828 6.27145e-05 67.6908 0C69.8328 0 71.7514 0.420341 73.3578 1.36112C74.9669 2.30374 76.155 3.70743 76.9371 5.48891C77.9122 7.55989 78.4458 9.88001 78.5707 12.4246C85.9169 4.31869 93.4092 0.000221017 101.056 0ZM67.6908 4.6513C61.5519 4.65134 56.0338 5.23953 51.1251 6.3995L49.0595 6.93252C43.5937 8.46004 39.4685 10.3732 36.5934 12.615L36.5839 12.6245C35.2508 13.6465 34.3314 14.6081 33.752 15.4959L33.525 15.8702C33.0749 16.6753 33.0414 17.3689 33.3389 18.0975C33.6681 18.6704 34.538 19.3759 36.5146 19.9441L37.899 20.3439L40.5001 21L38.6811 22.6536L37.5836 23.8022C21.8198 40.2809 11.8038 56.5825 7.40071 72.6979C4.96979 81.5642 4.5083 89.325 5.91222 96.021L6.1172 96.9094C7.12261 100.992 8.86141 104.232 11.2922 106.701L11.8252 107.218L11.8536 107.246L12.3802 107.738C15.0624 110.126 18.4272 111.346 22.5852 111.346C36.8728 111.346 52.1463 103.706 68.4319 87.9399C80.9321 75.6706 91.2878 61.5088 99.501 45.4469C106.996 30.6767 109.96 19.6075 108.873 12.0312C108.444 9.39395 107.545 7.60556 106.325 6.4693C105.118 5.34434 103.415 4.68718 101.04 4.6513C97.1421 4.65549 93.1017 6.15858 88.8923 9.35336L88.8892 9.35653C84.7749 12.461 81.0867 16.1866 77.8201 20.5374C77.5286 22.2795 76.9021 24.6161 75.969 27.5048L75.9595 27.5366C70.9379 42.09 61.6696 56.4542 48.249 70.6483C53.8013 71.6572 57.9199 73.6171 60.1759 76.8257L61.0652 78.0948L57.4827 80.8964L56.5019 79.5384C54.7021 77.0408 50.5928 75.246 43.3894 74.7063H43.3736C36.1545 74.0882 31.3079 74.7553 28.5013 76.3688L27.0727 77.1906L24.7769 72.9612L26.2906 72.2125C30.4517 70.1603 35.9114 69.4446 42.5316 69.8932C56.927 55.371 66.5976 40.7419 71.6297 26.0073C72.534 23.3531 73.2081 20.7449 73.6574 18.1832C74.0897 15.6409 74.0899 13.0589 73.6543 10.4289L73.6479 10.3782C73.3035 7.81531 72.3569 6.30208 71.0305 5.46353C70.1674 4.94678 69.0765 4.6513 67.6908 4.6513Z" fill="#F9FAFB"/>
<path d="M67.6908 4.6513C61.5519 4.65134 56.0338 5.23953 51.1251 6.3995L49.0595 6.93252C43.5937 8.46004 39.4685 10.3732 36.5934 12.615L36.5839 12.6245C35.2508 13.6465 34.3314 14.6081 33.752 15.4959L33.525 15.8702C33.0749 16.6753 33.0414 17.3689 33.3389 18.0975C33.6681 18.6704 34.538 19.3759 36.5146 19.9441L37.899 20.3439L40.5001 21L38.6811 22.6536L37.5836 23.8022C21.8198 40.2809 11.8038 56.5825 7.40071 72.6979C4.96979 81.5642 4.5083 89.325 5.91222 96.021L6.1172 96.9094C7.12261 100.992 8.86141 104.232 11.2922 106.701L11.8252 107.218L11.8536 107.246L12.3802 107.738C15.0624 110.126 18.4272 111.346 22.5852 111.346C36.8728 111.346 52.1463 103.706 68.4319 87.9399C80.9321 75.6706 91.2878 61.5088 99.501 45.4469C106.996 30.6767 109.96 19.6075 108.873 12.0312C108.444 9.39395 107.545 7.60556 106.325 6.4693C105.118 5.34434 103.415 4.68718 101.04 4.6513C97.1421 4.65549 93.1017 6.15858 88.8923 9.35336L88.8892 9.35653C84.7749 12.461 81.0867 16.1866 77.8201 20.5374C77.5286 22.2795 76.9021 24.6161 75.969 27.5048L75.9595 27.5366C70.9379 42.09 61.6696 56.4542 48.249 70.6483C53.8013 71.6572 57.9199 73.6171 60.1759 76.8257L61.0652 78.0948L57.4827 80.8964L56.5019 79.5384C54.7021 77.0408 50.5928 75.246 43.3894 74.7063H43.3736C36.1545 74.0882 31.3079 74.7553 28.5013 76.3688L27.0727 77.1906L24.7769 72.9612L26.2906 72.2125C30.4517 70.1603 35.9114 69.4446 42.5316 69.8932C56.927 55.371 66.5976 40.7419 71.6297 26.0073C72.534 23.3531 73.2081 20.7449 73.6574 18.1832C74.0897 15.6409 74.0899 13.0589 73.6543 10.4289L73.6479 10.3782C73.3035 7.81531 72.3569 6.30208 71.0305 5.46353C70.1674 4.94678 69.0765 4.6513 67.6908 4.6513Z" fill="#1372FB"/>
</svg>
