<svg width="160" height="160" viewBox="0 0 160 160" fill="none" xmlns="http://www.w3.org/2000/svg">
<path d="M78.4541 26.0039L78.6727 19.0073L78.6723 19.0073L78.4541 26.0039ZM89.4844 38.5029L96.3804 37.301L96.374 37.2639L96.3671 37.2269L89.4844 38.5029ZM89.5625 38.9512L96.471 37.8229L96.465 37.786L96.4585 37.7492L89.5625 38.9512ZM89.0449 48.7139L82.2551 47.0116L81.186 51.2759L84.5629 54.0908L89.0449 48.7139ZM94.418 56.7588L87.8431 59.1611L93.565 74.8213L100.737 59.77L94.418 56.7588ZM106 48L106 41H106V48ZM119.853 65.0957L112.889 65.8049L113.247 69.3276L116.298 71.1259L119.853 65.0957ZM122.302 66.8008L126.857 61.486L126.819 61.453L126.78 61.4207L122.302 66.8008ZM122.623 67.0762L127.247 61.8207L127.213 61.7908L127.179 61.7614L122.623 67.0762ZM125.835 88.2324L119.561 85.1273L117.914 88.4558L119.746 91.6861L125.835 88.2324ZM124.166 108.255L118.446 104.22L116.753 106.62L117.28 109.51L124.166 108.255ZM120.39 120.96L125.439 125.808L125.439 125.808L120.39 120.96ZM96.4893 127.312L96.8822 120.323L94.8897 120.211L93.1377 121.166L96.4893 127.312ZM59.4033 127.825L62.0953 121.364L58.0663 119.685L54.7859 122.564L59.4033 127.825ZM51.0928 130.831L50.7275 137.822L50.7279 137.822L51.0928 130.831ZM41.5176 126.113L36.5621 131.057L36.5622 131.057L41.5176 126.113ZM32.0107 95.2793L25.0124 95.1256L25.012 95.1469L25.0116 95.1681L32.0107 95.2793ZM32.0342 94.2119L25.0369 94.0151L25.0363 94.0367L25.0359 94.0582L32.0342 94.2119ZM38.1709 71.2412L32.6208 66.9755L32.6207 66.9756L38.1709 71.2412ZM50.1201 65.8057L49.2599 72.7526L53.9183 73.3294L56.2204 69.2388L50.1201 65.8057ZM59.7822 53.1514L65.0993 57.7042L65.0994 57.7042L59.7822 53.1514ZM66.5537 39.9736L59.7078 38.513L59.6986 38.556L59.69 38.5992L66.5537 39.9736ZM66.7314 39.1406L59.9025 37.6028L59.8938 37.6413L59.8855 37.68L66.7314 39.1406ZM78.4541 26.0039L78.2355 33.0005C78.5872 33.0115 79.2861 33.1666 80.2054 34.2255C81.1588 35.3237 82.1218 37.1905 82.6017 39.7789L89.4844 38.5029L96.3671 37.2269C94.7901 28.7205 88.936 19.328 78.6727 19.0073L78.4541 26.0039ZM89.4844 38.5029L82.5883 39.7049L82.6665 40.1531L89.5625 38.9512L96.4585 37.7492L96.3804 37.301L89.4844 38.5029ZM89.5625 38.9512L82.654 40.0794C83.0175 42.3053 82.8528 44.6274 82.2551 47.0116L89.0449 48.7139L95.8348 50.4161C96.8042 46.5493 97.1979 42.274 96.471 37.8229L89.5625 38.9512ZM89.0449 48.7139L84.5629 54.0908C85.7242 55.0588 86.9586 56.7403 87.8431 59.1611L94.418 56.7588L100.993 54.3565C99.4284 50.0747 96.9245 46.169 93.5269 43.3369L89.0449 48.7139ZM94.418 56.7588L100.737 59.77C102.578 55.906 104.85 55 106 55V48V41C97.5201 41 91.2963 47.0373 88.0988 53.7476L94.418 56.7588ZM106 48L106 55C106.884 55 108.248 55.4465 109.738 57.3031C111.235 59.1683 112.513 62.1133 112.889 65.8049L119.853 65.0957L126.817 64.3865C126.208 58.4088 124.08 52.8061 120.657 48.5407C117.227 44.2668 112.157 41 106 41L106 48ZM119.853 65.0957L116.298 71.1259C116.935 71.5017 117.436 71.8586 117.824 72.1809L122.302 66.8008L126.78 61.4207C125.743 60.5577 124.611 59.775 123.407 59.0656L119.853 65.0957ZM122.302 66.8008L117.746 72.1156L118.068 72.391L122.623 67.0762L127.179 61.7614L126.857 61.486L122.302 66.8008ZM122.623 67.0762L117.999 72.3316C121.191 75.1395 121.815 80.5733 119.561 85.1273L125.835 88.2324L132.109 91.3376C136.232 83.0058 136.619 70.0665 127.247 61.8207L122.623 67.0762ZM125.835 88.2324L119.746 91.6861C120.974 93.8509 122.297 98.7611 118.446 104.22L124.166 108.255L129.886 112.29C137.529 101.457 135.203 90.5597 131.924 84.7787L125.835 88.2324ZM124.166 108.255L117.28 109.51C117.648 111.534 117.292 114.079 115.34 116.112L120.39 120.96L125.439 125.808C131.2 119.807 132.029 112.356 131.052 106.999L124.166 108.255ZM120.39 120.96L115.34 116.112C113.221 118.319 108.208 120.959 96.8822 120.323L96.4893 127.312L96.0963 134.3C109.422 135.05 119.311 132.191 125.439 125.808L120.39 120.96ZM96.4893 127.312L93.1377 121.166C88.5039 123.693 76.1287 127.21 62.0953 121.364L59.4033 127.825L56.7113 134.287C75.2803 142.023 92.1133 137.671 99.8408 133.457L96.4893 127.312ZM59.4033 127.825L54.7859 122.564C53.6366 123.573 52.5196 123.896 51.4577 123.841L51.0928 130.831L50.7279 137.822C55.6822 138.08 60.3195 136.335 64.0208 133.086L59.4033 127.825ZM51.0928 130.831L51.458 123.841C50.1759 123.774 48.4037 123.104 46.473 121.169L41.5176 126.113L36.5622 131.057C40.3231 134.827 45.2002 137.533 50.7275 137.822L51.0928 130.831ZM41.5176 126.113L46.4731 121.169C42.5769 117.264 38.7964 108.824 39.0099 95.3905L32.0107 95.2793L25.0116 95.1681C24.7615 110.912 29.1061 123.584 36.5621 131.057L41.5176 126.113ZM32.0107 95.2793L39.0091 95.433L39.0325 94.3656L32.0342 94.2119L25.0359 94.0582L25.0124 95.1256L32.0107 95.2793ZM32.0342 94.2119L39.0314 94.4088C39.3188 84.1915 41.4794 78.4236 43.7211 75.5068L38.1709 71.2412L32.6207 66.9756C27.8253 73.2152 25.3639 82.3924 25.0369 94.0151L32.0342 94.2119ZM38.1709 71.2412L43.721 75.507C45.625 73.0297 47.5834 72.545 49.2599 72.7526L50.1201 65.8057L50.9803 58.8587C44.0994 58.0067 37.3692 60.7975 32.6208 66.9755L38.1709 71.2412ZM50.1201 65.8057L56.2204 69.2388C58.9902 64.3173 61.8942 61.4474 65.0993 57.7042L59.7822 53.1514L54.4651 48.5985C51.8926 51.6029 47.6592 55.9059 44.0198 62.3725L50.1201 65.8057ZM59.7822 53.1514L65.0994 57.7042C68.5864 53.6318 71.8749 49.0514 73.4174 41.3481L66.5537 39.9736L59.69 38.5992C58.7989 43.0491 57.1309 45.4852 54.4651 48.5986L59.7822 53.1514ZM66.5537 39.9736L73.3996 41.4343L73.5774 40.6013L66.7314 39.1406L59.8855 37.68L59.7078 38.513L66.5537 39.9736ZM66.7314 39.1406L73.5604 40.6785C74.3421 37.2072 75.5148 35.1016 76.4972 34.0101C77.3759 33.0339 77.9383 32.9912 78.2359 33.0005L78.4541 26.0039L78.6723 19.0073C68.0265 18.6753 62.0262 28.1722 59.9025 37.6028L66.7314 39.1406Z" fill="white"/>
<path d="M68.5151 40.3654C72.0156 22.8831 85.0167 25.3807 87.517 38.8673C89.1313 47.5749 84.4898 56.2805 80.0571 62.0304C102.439 60.1317 115.604 63.8279 121.022 68.338C127.023 73.3331 127.022 82.3244 123.522 88.3185C125.689 91.3155 128.423 99.4073 122.022 107.799C123.689 114.293 120.821 126.881 96.018 125.282C90.5106 128.518 75.5932 132.914 58.9711 125.462C49.9392 135.117 33.5571 123.828 34.0102 95.3117C34.3695 72.701 43.2481 66.0782 51.186 68.0324C57.6727 55.6224 65.8953 53.4497 68.5151 40.3654Z" fill="white"/>
<path d="M68.5151 40.3654L66.554 39.9727L66.554 39.9727L68.5151 40.3654ZM87.517 38.8673L89.4835 38.5028V38.5028L87.517 38.8673ZM80.0571 62.0304L78.4731 60.8093L75.6994 64.4073L80.2261 64.0233L80.0571 62.0304ZM121.022 68.338L122.301 66.8009L122.301 66.8009L121.022 68.338ZM123.522 88.3185L121.795 87.3099L121.138 88.4347L121.901 89.4903L123.522 88.3185ZM122.022 107.799L120.432 106.586L119.844 107.357L120.085 108.296L122.022 107.799ZM96.018 125.282L96.1466 123.286L95.5341 123.247L95.0049 123.558L96.018 125.282ZM58.9711 125.462L59.7893 123.637L58.4862 123.053L57.5106 124.096L58.9711 125.462ZM34.0102 95.3117L32.0104 95.2799L34.0102 95.3117ZM51.186 68.0324L50.7079 69.9744L52.2315 70.3495L52.9584 68.9588L51.186 68.0324ZM68.5151 40.3654L70.4761 40.758C72.1741 32.2785 75.8745 29.9254 78.3287 30.002C80.9456 30.0838 84.3752 32.8921 85.5505 39.2319L87.517 38.8673L89.4835 38.5028C88.1585 31.3559 83.8375 26.1722 78.4536 26.004C72.9071 25.8307 68.3567 30.97 66.554 39.9727L68.5151 40.3654ZM87.517 38.8673L85.5505 39.2319C87.0037 47.0703 82.815 55.1773 78.4731 60.8093L80.0571 62.0304L81.641 63.2515C86.1647 57.3836 91.2589 48.0795 89.4835 38.5028L87.517 38.8673ZM80.0571 62.0304L80.2261 64.0233C91.2833 63.0853 99.9856 63.5367 106.538 64.7476C113.126 65.9652 117.398 67.9238 119.742 69.8752L121.022 68.338L122.301 66.8009C119.228 64.2422 114.209 62.0976 107.265 60.8142C100.284 59.5242 91.2131 59.0769 79.888 60.0376L80.0571 62.0304ZM121.022 68.338L119.742 69.8752C124.768 74.0588 124.965 81.881 121.795 87.3099L123.522 88.3185L125.249 89.3271C129.079 82.7679 129.277 72.6074 122.301 66.8009L121.022 68.338ZM123.522 88.3185L121.901 89.4903C123.668 91.9334 126.186 99.0416 120.432 106.586L122.022 107.799L123.612 109.012C130.659 99.7731 127.71 90.6977 125.143 87.1467L123.522 88.3185ZM122.022 107.799L120.085 108.296C120.79 111.045 120.521 115.047 117.504 118.19C114.476 121.344 108.266 124.068 96.1466 123.286L96.018 125.282L95.8894 127.278C108.574 128.096 116.199 125.324 120.389 120.96C124.589 116.585 124.92 111.047 123.959 107.302L122.022 107.799ZM96.018 125.282L95.0049 123.558C89.9676 126.517 75.7333 130.785 59.7893 123.637L58.9711 125.462L58.1529 127.287C75.4531 135.043 91.0536 130.519 97.0311 127.007L96.018 125.282ZM58.9711 125.462L57.5106 124.096C55.6145 126.123 53.4534 126.949 51.3013 126.837C49.1084 126.722 46.6717 125.616 44.3496 123.288C39.69 118.618 35.7887 109.271 36.0099 95.3434L34.0102 95.3117L32.0104 95.2799C31.7786 109.869 35.8418 120.424 41.5179 126.113C44.3638 128.966 47.6878 130.653 51.0926 130.831C54.5382 131.011 57.8118 129.629 60.4316 126.828L58.9711 125.462ZM34.0102 95.3117L36.0099 95.3434C36.1864 84.2351 38.4602 77.4286 41.3419 73.6789C44.128 70.0536 47.5297 69.192 50.7079 69.9744L51.186 68.0324L51.664 66.0903C46.9043 64.9186 41.8978 66.3913 38.1703 71.2415C34.5384 75.9674 32.1932 83.7775 32.0104 95.2799L34.0102 95.3117ZM51.186 68.0324L52.9584 68.9588C56.0673 63.0112 59.5348 59.5888 62.8197 55.7526C66.1309 51.8858 69.0731 47.7652 70.4761 40.758L68.5151 40.3654L66.554 39.9727C65.3372 46.0499 62.8583 49.5578 59.7815 53.1509C56.6785 56.7746 52.7913 60.6436 49.4135 67.1059L51.186 68.0324Z" fill="black"/>
<path d="M53.0021 64.9634C46.0021 77.451 45.3355 90.2717 47.0021 96.4323" stroke="black" stroke-width="4"/>
<path d="M59.5041 125.903C51.103 120.708 48.3359 114.748 48.0026 112.417" stroke="black" stroke-width="4"/>
<path d="M82 50C85.0342 50 87.9854 51.7545 90.2607 55.0049C92.5316 58.249 94 62.8372 94 68C94 73.1628 92.5316 77.751 90.2607 80.9951C87.9854 84.2455 85.0342 86 82 86C78.9658 86 76.0146 84.2455 73.7393 80.9951C71.4684 77.751 70 73.1628 70 68C70 62.8372 71.4684 58.249 73.7393 55.0049C76.0146 51.7545 78.9658 50 82 50Z" fill="white" stroke="black" stroke-width="4"/>
<path d="M85 55C86.012 55 87.2145 55.6487 88.2627 57.2959C89.2957 58.9194 90 61.2842 90 64C90 66.7158 89.2957 69.0806 88.2627 70.7041C87.2145 72.3513 86.012 73 85 73C83.988 73 82.7855 72.3513 81.7373 70.7041C80.7043 69.0806 80 66.7158 80 64C80 61.2842 80.7043 58.9194 81.7373 57.2959C82.7855 55.6487 83.988 55 85 55Z" fill="black" stroke="black" stroke-width="4"/>
<path d="M106 50C109.034 50 111.985 51.7545 114.261 55.0049C116.532 58.249 118 62.8372 118 68C118 73.1628 116.532 77.751 114.261 80.9951C111.985 84.2455 109.034 86 106 86C102.966 86 100.015 84.2455 97.7393 80.9951C95.4684 77.751 94 73.1628 94 68C94 62.8372 95.4684 58.249 97.7393 55.0049C100.015 51.7545 102.966 50 106 50Z" fill="white" stroke="black" stroke-width="4"/>
<path d="M111 54C112.012 54 113.214 54.6487 114.263 56.2959C115.296 57.9194 116 60.2842 116 63C116 65.7158 115.296 68.0806 114.263 69.7041C113.214 71.3513 112.012 72 111 72C109.988 72 108.786 71.3513 107.737 69.7041C106.704 68.0806 106 65.7158 106 63C106 60.2842 106.704 57.9194 107.737 56.2959C108.786 54.6487 109.988 54 111 54Z" fill="black" stroke="black" stroke-width="4"/>
<path d="M80 100C85.7 105.333 93.3 105.333 99 100" stroke="black" stroke-width="4"/>
<path d="M82.5 92C82.5 97.5 79.5 103 72.5 103" stroke="black" stroke-width="4"/>
</svg>
