<svg width="375" height="197" viewBox="0 0 375 197" fill="none" xmlns="http://www.w3.org/2000/svg">
<rect width="375" height="197" fill="#F9FAFB"/>
<path fill-rule="evenodd" clip-rule="evenodd" d="M66.0005 133.125L71.6274 176H182L179 131.087L66.0005 133.125ZM181.5 131.042L184.5 176H305L322.5 128.5L181.5 131.042Z" fill="#D1D5DB"/>
<path d="M106 117L103 128L221 126L212 93H185C179.4 93 181 97 182 98H165L161 117H106Z" fill="#1372FB"/>
<circle cx="200" cy="79" r="6" fill="#D1D5DB"/>
<rect x="194" y="87" width="12" height="4" fill="#D1D5DB"/>
<rect x="172" y="21" width="12" height="2" transform="rotate(90 172 21)" fill="#D1D5DB"/>
<rect x="194.108" y="58.03" width="14" height="2" transform="rotate(167.862 194.108 58.03)" fill="#D1D5DB"/>
<rect x="190.012" y="62.9917" width="9.24251" height="2" transform="rotate(167.862 190.012 62.9917)" fill="#D1D5DB"/>
<path d="M182 47H175.962L184.37 89.5381L182.408 89.9258L180.895 82.2754L170 74.0996V95H168V47H164V45H182V47ZM170 71.5996L180.315 79.3398L178.337 69.332H170V71.5996ZM171.925 67.333H177.943L177.068 62.9082L171.925 67.333ZM170 66.165L176.62 60.6416L176.295 59H170V66.165ZM170 57H175.901L173.924 47H170V57Z" fill="#D1D5DB"/>
<path d="M125 101L122 114H156V101H125Z" fill="#D1D5DB"/>
<path d="M253 113L257 126H223L219.5 113H253Z" fill="#D1D5DB"/>
<path d="M275.067 118.373L278 126H258.053L255.717 118.373H275.067Z" fill="#D1D5DB"/>
<path d="M150 99H142V92C142 90.6667 142.8 88 146 88C149.2 88 150 90.6667 150 92V99Z" fill="#D1D5DB"/>
<rect x="168" y="35" width="6" height="8" fill="#D1D5DB"/>
</svg>
