<svg width="160" height="160" viewBox="0 0 160 160" fill="none" xmlns="http://www.w3.org/2000/svg">
<path d="M78.4535 26.0037L78.6718 19.0071L78.6716 19.0071L78.4535 26.0037ZM89.4838 38.5027L96.3798 37.3008L96.3733 37.2636L96.3665 37.2266L89.4838 38.5027ZM89.5619 38.9509L96.4704 37.8226L96.4643 37.7858L96.4579 37.749L89.5619 38.9509ZM89.0453 48.7146L82.2554 47.0123L81.1864 51.2764L84.563 54.0913L89.0453 48.7146ZM94.4183 56.7605L87.8433 59.1624L93.5651 74.8258L100.738 59.7713L94.4183 56.7605ZM106 47.9998L106.001 40.9998H106V47.9998ZM119.852 65.0955L112.888 65.8047L113.247 69.3274L116.297 71.1256L119.852 65.0955ZM122.301 66.8005L126.857 61.4857L126.818 61.4527L126.779 61.4203L122.301 66.8005ZM122.622 67.0759L127.246 61.8204L127.212 61.7905L127.178 61.7611L122.622 67.0759ZM125.834 88.2322L119.561 85.127L117.913 88.4557L119.746 91.6861L125.834 88.2322ZM124.166 108.255L118.447 104.219L116.753 106.62L117.28 109.51L124.166 108.255ZM120.389 120.96L125.438 125.808L125.439 125.808L120.389 120.96ZM96.4886 127.311L96.8816 120.322L94.8891 120.21L93.1371 121.166L96.4886 127.311ZM59.4027 127.825L62.0948 121.363L58.0657 119.685L54.7853 122.564L59.4027 127.825ZM51.0922 130.831L50.7268 137.821L50.7269 137.821L51.0922 130.831ZM41.5179 126.113L36.5623 131.057L36.5625 131.057L41.5179 126.113ZM32.0111 95.2791L25.012 95.1678L25.012 95.1678L32.0111 95.2791ZM38.1703 71.241L32.62 66.9754L32.6199 66.9756L38.1703 71.241ZM50.1195 65.8054L49.2595 72.7524L53.9177 73.3291L56.2198 69.2386L50.1195 65.8054ZM59.7816 53.1511L65.0987 57.704L65.0987 57.7039L59.7816 53.1511ZM66.5531 39.9734L59.7072 38.5127L59.698 38.5558L59.6894 38.5989L66.5531 39.9734ZM66.7308 39.1404L59.9019 37.6025L59.8932 37.6411L59.8849 37.6797L66.7308 39.1404ZM78.4535 26.0037L78.2352 33.0003C78.5867 33.0112 79.2855 33.1662 80.2048 34.2251C81.1581 35.3233 82.1211 37.1902 82.6011 39.7788L89.4838 38.5027L96.3665 37.2266C94.7894 28.7206 88.9357 19.3273 78.6718 19.0071L78.4535 26.0037ZM89.4838 38.5027L82.5877 39.7046L82.6658 40.1529L89.5619 38.9509L96.4579 37.749L96.3798 37.3008L89.4838 38.5027ZM89.5619 38.9509L82.6534 40.0792C83.0172 42.3066 82.8528 44.6295 82.2554 47.0123L89.0453 48.7146L95.8351 50.4169C96.8051 46.5482 97.1972 42.2727 96.4704 37.8226L89.5619 38.9509ZM89.0453 48.7146L84.563 54.0913C85.7245 55.0596 86.9589 56.7412 87.8433 59.1624L94.4183 56.7605L100.993 54.3586C99.4291 50.0764 96.9252 46.1703 93.5276 43.3379L89.0453 48.7146ZM94.4183 56.7605L100.738 59.7713C102.58 55.9056 104.852 54.9998 106 54.9998V47.9998V40.9998C97.5189 40.9998 91.2958 47.0398 88.0989 53.7496L94.4183 56.7605ZM106 47.9998L106 54.9998C106.884 54.9998 108.248 55.4461 109.738 57.3028C111.234 59.168 112.512 62.1131 112.888 65.8047L119.852 65.0955L126.816 64.3862C126.207 58.4089 124.08 52.8063 120.657 48.5409C117.227 44.267 112.158 41 106.001 40.9998L106 47.9998ZM119.852 65.0955L116.297 71.1256C116.934 71.5014 117.436 71.8583 117.823 72.1808L122.301 66.8005L126.779 61.4203C125.743 60.5575 124.61 59.7749 123.407 59.0653L119.852 65.0955ZM122.301 66.8005L117.746 72.1153L118.067 72.3907L122.622 67.0759L127.178 61.7611L126.857 61.4857L122.301 66.8005ZM122.622 67.0759L117.999 72.3314C121.19 75.1393 121.815 80.5729 119.561 85.127L125.834 88.2322L132.108 91.3374C136.232 83.0056 136.619 70.0662 127.246 61.8204L122.622 67.0759ZM125.834 88.2322L119.746 91.6861C120.974 93.8511 122.297 98.7612 118.447 104.219L124.166 108.255L129.886 112.29C137.529 101.456 135.202 90.5587 131.923 84.7782L125.834 88.2322ZM124.166 108.255L117.28 109.51C117.649 111.533 117.292 114.078 115.34 116.112L120.389 120.96L125.439 125.808C131.199 119.808 132.03 112.356 131.053 106.999L124.166 108.255ZM120.389 120.96L115.34 116.112C113.22 118.319 108.208 120.959 96.8816 120.322L96.4886 127.311L96.0956 134.3C109.422 135.05 119.31 132.19 125.438 125.808L120.389 120.96ZM96.4886 127.311L93.1371 121.166C88.5031 123.693 76.1282 127.21 62.0948 121.363L59.4027 127.825L56.7106 134.287C75.2798 142.023 92.1127 137.671 99.8402 133.457L96.4886 127.311ZM59.4027 127.825L54.7853 122.564C53.6356 123.573 52.519 123.896 51.4574 123.84L51.0922 130.831L50.7269 137.821C55.6818 138.08 60.3189 136.334 64.0202 133.086L59.4027 127.825ZM51.0922 130.831L51.4575 123.84C50.1759 123.773 48.4042 123.104 46.4734 121.169L41.5179 126.113L36.5625 131.057C40.3229 134.826 45.1993 137.532 50.7268 137.821L51.0922 130.831ZM41.5179 126.113L46.4736 121.169C42.5775 117.264 38.7968 108.823 39.0102 95.3903L32.0111 95.2791L25.012 95.1678C24.7618 110.912 29.1069 123.584 36.5623 131.057L41.5179 126.113ZM32.0111 95.2791L39.0102 95.3903C39.1821 84.5771 41.4021 78.5234 43.7207 75.5063L38.1703 71.241L32.6199 66.9756C27.6751 73.4102 25.2058 82.9771 25.012 95.1678L32.0111 95.2791ZM38.1703 71.241L43.7205 75.5065C45.624 73.0297 47.5826 72.5448 49.2595 72.7524L50.1195 65.8054L50.9795 58.8585C44.0991 58.0067 37.3684 60.7969 32.62 66.9754L38.1703 71.241ZM50.1195 65.8054L56.2198 69.2386C58.9896 64.3171 61.8936 61.4472 65.0987 57.704L59.7816 53.1511L54.4645 48.5983C51.892 51.6027 47.6586 55.9057 44.0192 62.3723L50.1195 65.8054ZM59.7816 53.1511L65.0987 57.7039C68.5858 53.6315 71.8742 49.0512 73.4168 41.3478L66.5531 39.9734L59.6894 38.5989C58.7983 43.0489 57.1303 45.4849 54.4645 48.5983L59.7816 53.1511ZM66.5531 39.9734L73.399 41.4341L73.5767 40.6011L66.7308 39.1404L59.8849 37.6797L59.7072 38.5127L66.5531 39.9734ZM66.7308 39.1404L73.5598 40.6783C74.3415 37.2071 75.5142 35.1015 76.4967 34.01C77.3755 33.0337 77.9379 32.991 78.2354 33.0003L78.4535 26.0037L78.6716 19.0071C68.0261 18.6753 62.0256 28.1721 59.9019 37.6025L66.7308 39.1404Z" fill="#1372FB"/>
<path d="M68.5149 40.3651C72.0155 22.8828 85.0166 25.3805 87.5169 38.8671C89.1312 47.5749 84.4888 56.2802 80.056 62.0302C102.439 60.1313 115.604 63.8276 121.022 68.3378C127.023 73.3329 127.022 82.3242 123.522 88.3183C125.689 91.3153 128.423 99.407 122.022 107.799C123.689 114.292 120.822 126.88 96.0188 125.282C90.5118 128.518 75.5936 132.914 58.971 125.462C49.9391 135.116 33.557 123.827 34.0101 95.3114C34.3694 72.7009 43.248 66.0781 51.1858 68.0321C57.6725 55.6222 65.8951 53.4494 68.5149 40.3651Z" fill="white"/>
<path d="M68.5149 40.3651L66.5539 39.9725L66.5539 39.9725L68.5149 40.3651ZM87.5169 38.8671L89.4834 38.5025V38.5025L87.5169 38.8671ZM80.056 62.0302L78.472 60.809L75.6982 64.4071L80.225 64.023L80.056 62.0302ZM121.022 68.3378L122.301 66.8006L121.022 68.3378ZM123.522 88.3183L121.795 87.3097L121.138 88.4345L121.901 89.4901L123.522 88.3183ZM122.022 107.799L120.432 106.586L119.843 107.357L120.085 108.296L122.022 107.799ZM96.0188 125.282L96.1475 123.286L95.5349 123.247L95.0056 123.558L96.0188 125.282ZM58.971 125.462L59.7892 123.637L58.4861 123.053L57.5105 124.095L58.971 125.462ZM34.0101 95.3114L32.0103 95.2796L32.0103 95.2796L34.0101 95.3114ZM51.1858 68.0321L50.7078 69.9741L52.2314 70.3492L52.9583 68.9586L51.1858 68.0321ZM68.5149 40.3651L70.476 40.7578C72.1739 32.2782 75.8744 29.9251 78.3286 30.0018C80.9454 30.0835 84.3751 32.8919 85.5504 39.2317L87.5169 38.8671L89.4834 38.5025C88.1584 31.3557 83.8374 26.1719 78.4535 26.0038C72.9069 25.8305 68.3565 30.9698 66.5539 39.9725L68.5149 40.3651ZM87.5169 38.8671L85.5504 39.2317C87.0036 47.0702 82.8141 55.1769 78.472 60.809L80.056 62.0302L81.6399 63.2513C86.1636 57.3836 91.2589 48.0796 89.4834 38.5025L87.5169 38.8671ZM80.056 62.0302L80.225 64.023C91.2826 63.0849 99.9851 63.5364 106.537 64.7473C113.125 65.9649 117.398 67.9235 119.742 69.8749L121.022 68.3378L122.301 66.8006C119.227 64.2419 114.208 62.0973 107.264 60.8139C100.284 59.5238 91.2123 59.0765 79.8869 60.0373L80.056 62.0302ZM121.022 68.3378L119.742 69.8749C124.768 74.0586 124.965 81.8807 121.795 87.3097L123.522 88.3183L125.249 89.3268C129.079 82.7676 129.277 72.6071 122.301 66.8006L121.022 68.3378ZM123.522 88.3183L121.901 89.4901C123.667 91.9332 126.186 99.0413 120.432 106.586L122.022 107.799L123.612 109.012C130.659 99.7728 127.71 90.6974 125.143 87.1464L123.522 88.3183ZM122.022 107.799L120.085 108.296C120.79 111.045 120.521 115.047 117.504 118.19C114.476 121.343 108.266 124.067 96.1475 123.286L96.0188 125.282L95.8902 127.278C108.574 128.095 116.199 125.324 120.389 120.96C124.589 116.585 124.92 111.046 123.959 107.301L122.022 107.799ZM96.0188 125.282L95.0056 123.558C89.9689 126.517 75.7337 130.785 59.7892 123.637L58.971 125.462L58.1528 127.287C75.4535 135.043 91.0548 130.519 97.032 127.006L96.0188 125.282ZM58.971 125.462L57.5105 124.095C55.6144 126.122 53.4532 126.949 51.3012 126.837C49.1083 126.722 46.6715 125.615 44.3495 123.288C39.6899 118.617 35.7885 109.27 36.0098 95.3432L34.0101 95.3114L32.0103 95.2796C31.7785 109.868 35.8417 120.424 41.5178 126.113C44.3637 128.966 47.6876 130.653 51.0924 130.831C54.5381 131.011 57.8117 129.629 60.4315 126.828L58.971 125.462ZM34.0101 95.3114L36.0098 95.3432C36.1863 84.235 38.4601 77.4284 41.3418 73.6788C44.1279 70.0535 47.5297 69.1918 50.7078 69.9741L51.1858 68.0321L51.6639 66.0901C46.9042 64.9184 41.8977 66.3911 38.1702 71.2414C34.5383 75.9672 32.1931 83.7773 32.0103 95.2796L34.0101 95.3114ZM51.1858 68.0321L52.9583 68.9586C56.0672 63.0109 59.5347 59.5886 62.8196 55.7524C66.1307 51.8856 69.073 47.7649 70.476 40.7578L68.5149 40.3651L66.5539 39.9725C65.3371 46.0496 62.8581 49.5575 59.7813 53.1507C56.6783 56.7744 52.7912 60.6434 49.4134 67.1056L51.1858 68.0321Z" fill="black"/>
<path d="M53.0021 64.9631C46.0021 77.4508 45.3355 90.2715 47.0021 96.4321" stroke="black" stroke-width="4"/>
<path d="M59.5041 125.903C51.103 120.708 48.3359 114.748 48.0026 112.417" stroke="black" stroke-width="4"/>
<path d="M82 50C85.0342 50 87.9854 51.7545 90.2607 55.0049C92.5316 58.249 94 62.8372 94 68C94 73.1628 92.5316 77.751 90.2607 80.9951C87.9854 84.2455 85.0342 86 82 86C78.9658 86 76.0146 84.2455 73.7393 80.9951C71.4684 77.751 70 73.1628 70 68C70 62.8372 71.4684 58.249 73.7393 55.0049C76.0146 51.7545 78.9658 50 82 50Z" fill="white" stroke="black" stroke-width="4"/>
<path d="M85 55C86.012 55 87.2145 55.6487 88.2627 57.2959C89.2957 58.9194 90 61.2842 90 64C90 66.7158 89.2957 69.0806 88.2627 70.7041C87.2145 72.3513 86.012 73 85 73C83.988 73 82.7855 72.3513 81.7373 70.7041C80.7043 69.0806 80 66.7158 80 64C80 61.2842 80.7043 58.9194 81.7373 57.2959C82.7855 55.6487 83.988 55 85 55Z" fill="black" stroke="black" stroke-width="4"/>
<path d="M106 50C109.034 50 111.985 51.7545 114.261 55.0049C116.532 58.249 118 62.8372 118 68C118 73.1628 116.532 77.751 114.261 80.9951C111.985 84.2455 109.034 86 106 86C102.966 86 100.015 84.2455 97.7393 80.9951C95.4684 77.751 94 73.1628 94 68C94 62.8372 95.4684 58.249 97.7393 55.0049C100.015 51.7545 102.966 50 106 50Z" fill="white" stroke="black" stroke-width="4"/>
<path d="M111 54C112.012 54 113.214 54.6487 114.263 56.2959C115.296 57.9194 116 60.2842 116 63C116 65.7158 115.296 68.0806 114.263 69.7041C113.214 71.3513 112.012 72 111 72C109.988 72 108.786 71.3513 107.737 69.7041C106.704 68.0806 106 65.7158 106 63C106 60.2842 106.704 57.9194 107.737 56.2959C108.786 54.6487 109.988 54 111 54Z" fill="black" stroke="black" stroke-width="4"/>
<path d="M80 100C85.7 105.333 93.3 105.333 99 100" stroke="black" stroke-width="4"/>
<path d="M82.5 92C82.5 97.5 79.5 103 72.5 103" stroke="black" stroke-width="4"/>
</svg>
