<svg width="20" height="20" viewBox="0 0 20 20" fill="none" xmlns="http://www.w3.org/2000/svg">
<path d="M10 3.87488C6.01669 3.87488 2.77502 7.11654 2.77502 11.0999C2.77502 15.0832 6.01669 18.3332 10 18.3332C13.9834 18.3332 17.225 15.0915 17.225 11.1082C17.225 7.12488 13.9834 3.87488 10 3.87488ZM10.625 10.8332C10.625 11.1749 10.3417 11.4582 10 11.4582C9.65836 11.4582 9.37502 11.1749 9.37502 10.8332V6.66654C9.37502 6.32488 9.65836 6.04154 10 6.04154C10.3417 6.04154 10.625 6.32488 10.625 6.66654V10.8332Z" fill="#6C7584"/>
<path d="M12.4084 2.87496H7.5917C7.25837 2.87496 6.9917 2.60829 6.9917 2.27496C6.9917 1.94163 7.25837 1.66663 7.5917 1.66663H12.4084C12.7417 1.66663 13.0084 1.93329 13.0084 2.26663C13.0084 2.59996 12.7417 2.87496 12.4084 2.87496Z" fill="#6C7584"/>
</svg>
