<svg width="160" height="160" viewBox="0 0 160 160" fill="none" xmlns="http://www.w3.org/2000/svg">
<path d="M68.5148 40.3651C72.0154 22.8829 85.0174 25.3805 87.5177 38.867C89.1322 47.5755 84.489 56.2821 80.0558 62.0321C102.439 60.1331 115.603 63.8276 121.022 68.3377C127.022 73.3328 127.022 82.3241 123.522 88.3182C125.689 91.3152 128.422 99.407 122.022 107.799C123.689 114.292 120.822 126.88 96.0187 125.282C90.5117 128.518 75.5936 132.915 58.9709 125.462C49.939 135.116 33.5568 123.827 34.0099 95.3114C34.3692 72.7001 43.2486 66.0774 51.1867 68.0321C57.6734 55.6225 65.8951 53.4492 68.5148 40.3651Z" fill="white"/>
<path d="M68.5148 40.3651L61.6511 38.9907L61.6511 38.9908L68.5148 40.3651ZM87.5177 38.867L94.4005 37.5911L94.4005 37.591L87.5177 38.867ZM80.0558 62.0321L74.5122 57.758L64.8028 70.3513L80.6476 69.007L80.0558 62.0321ZM121.022 68.3377L125.5 62.9577L125.5 62.9577L121.022 68.3377ZM123.522 88.3182L117.477 84.7882L115.178 88.7251L117.849 92.4197L123.522 88.3182ZM122.022 107.799L116.456 103.553L114.398 106.252L115.241 109.539L122.022 107.799ZM96.0187 125.282L96.4689 118.297L94.3249 118.158L92.4725 119.247L96.0187 125.282ZM58.9709 125.462L61.8347 119.074L57.2738 117.03L53.8591 120.68L58.9709 125.462ZM34.0099 95.3114L27.0108 95.2002V95.2002L34.0099 95.3114ZM51.1867 68.0321L49.513 74.8291L54.846 76.1422L57.3903 71.2748L51.1867 68.0321ZM68.5148 40.3651L75.3786 41.7395C76.1002 38.1358 77.1821 36.2685 77.8923 35.4515C78.5211 34.7281 78.6384 35.0139 78.1729 34.9994C77.8175 34.9883 78.0706 34.8226 78.7178 35.5624C79.3646 36.3016 80.1934 37.7609 80.635 40.143L87.5177 38.867L94.4005 37.591C92.8884 29.435 87.4526 21.2824 78.6099 21.0062C69.198 20.7122 63.5848 29.3338 61.6511 38.9907L68.5148 40.3651ZM87.5177 38.867L80.635 40.143C81.6854 45.8089 78.6275 52.4203 74.5122 57.758L80.0558 62.0321L85.5995 66.3062C90.3505 60.144 96.579 49.342 94.4005 37.5911L87.5177 38.867ZM80.0558 62.0321L80.6476 69.007C91.3705 68.0973 99.6121 68.5535 105.629 69.665C111.772 70.7999 115.111 72.5258 116.543 73.7178L121.022 68.3377L125.5 62.9577C121.514 59.6396 115.561 57.2631 108.172 55.898C100.656 54.5095 91.1242 54.0679 79.4641 55.0571L80.0558 62.0321ZM121.022 68.3377L116.543 73.7178C119.132 75.8729 119.822 80.772 117.477 84.7882L123.522 88.3182L129.566 91.8483C134.222 83.8763 134.913 70.7927 125.5 62.9577L121.022 68.3377ZM123.522 88.3182L117.849 92.4197C118.614 93.4778 120.595 98.1269 116.456 103.553L122.022 107.799L127.587 112.044C136.25 100.687 132.763 89.1527 129.194 84.2168L123.522 88.3182ZM122.022 107.799L115.241 109.539C115.627 111.043 115.436 113.124 113.897 114.727C112.322 116.368 107.881 119.032 96.4689 118.297L96.0187 125.282L95.5686 132.268C108.959 133.13 118.354 130.3 123.996 124.423C129.674 118.508 130.083 111.048 128.802 106.058L122.022 107.799ZM96.0187 125.282L92.4725 119.247C88.6113 121.516 76.0839 125.463 61.8347 119.074L58.9709 125.462L56.1071 131.849C75.1032 140.366 92.4121 135.52 99.5649 131.317L96.0187 125.282ZM58.9709 125.462L53.8591 120.68C52.8677 121.739 52.0971 121.871 51.5619 121.843C50.8839 121.808 49.5562 121.428 47.889 119.756C44.4999 116.359 40.8009 108.523 41.0091 95.4226L34.0099 95.3114L27.0108 95.2002C26.7659 110.616 31.0314 122.682 37.978 129.644C41.4787 133.153 45.9118 135.567 50.8314 135.824C55.894 136.089 60.5581 134.011 64.0827 130.244L58.9709 125.462ZM34.0099 95.3114L41.0091 95.4226C41.1778 84.8066 43.3624 79.2545 45.3064 76.7252C46.9159 74.6311 48.3118 74.5333 49.513 74.8291L51.1867 68.0321L52.8604 61.2351C46.1235 59.5763 39.1107 61.8124 34.2062 68.1938C29.6361 74.14 27.2014 83.2049 27.0108 95.2002L34.0099 95.3114ZM51.1867 68.0321L57.3903 71.2748C60.163 65.9704 63.1059 63.1062 66.6181 59.0043C70.2218 54.7953 73.7429 49.9087 75.3786 41.7394L68.5148 40.3651L61.6511 38.9908C60.667 43.9056 58.7673 46.6477 55.9836 49.8988C53.1084 53.2569 48.6971 57.6842 44.9831 64.7894L51.1867 68.0321Z" fill="#1372FB"/>
<path d="M68.5145 40.366C72.0149 22.8833 85.017 25.3804 87.5174 38.867C89.1318 47.5749 84.4894 56.2811 80.0564 62.031C102.439 60.1322 115.604 63.8275 121.022 68.3377C127.023 73.3327 127.023 82.3241 123.522 88.3182C125.689 91.3151 128.423 99.4071 122.022 107.799C123.689 114.292 120.822 126.88 96.0184 125.282C90.5112 128.518 75.593 132.915 58.9705 125.463C49.9385 135.116 33.5574 123.827 34.0106 95.3113C34.3699 72.6996 43.2491 66.077 51.1873 68.032C57.6739 55.6229 65.8946 53.4497 68.5145 40.366Z" fill="white"/>
<path d="M68.5145 40.366L70.4755 40.7587L70.4755 40.7587L68.5145 40.366ZM87.5174 38.867L89.4839 38.5024L89.4839 38.5024L87.5174 38.867ZM80.0564 62.031L78.4725 60.8099L75.6986 64.4079L80.2255 64.0239L80.0564 62.031ZM121.022 68.3377L122.302 66.8006L122.302 66.8005L121.022 68.3377ZM123.522 88.3182L121.795 87.3096L121.138 88.4344L121.902 89.49L123.522 88.3182ZM122.022 107.799L120.432 106.586L119.844 107.357L120.085 108.296L122.022 107.799ZM96.0184 125.282L96.147 123.286L95.5344 123.247L95.0052 123.558L96.0184 125.282ZM58.9705 125.463L59.7887 123.638L58.4857 123.054L57.5101 124.096L58.9705 125.463ZM34.0106 95.3113L32.0108 95.2795H32.0108L34.0106 95.3113ZM51.1873 68.032L50.709 69.974L52.2328 70.3493L52.9598 68.9585L51.1873 68.032ZM68.5145 40.366L70.4755 40.7587C72.1734 32.279 75.874 29.9255 78.3286 30.002C80.9457 30.0837 84.3755 32.8919 85.5509 39.2316L87.5174 38.867L89.4839 38.5024C88.1589 31.3555 83.8374 26.1719 78.4533 26.004C72.9066 25.831 68.356 30.9704 66.5534 39.9734L68.5145 40.366ZM87.5174 38.867L85.5509 39.2316C87.0041 47.0703 82.8146 55.1778 78.4725 60.8099L80.0564 62.031L81.6404 63.2522C86.1642 57.3844 91.2594 48.0796 89.4839 38.5024L87.5174 38.867ZM80.0564 62.031L80.2255 64.0239C91.283 63.0858 99.9855 63.537 106.538 64.7477C113.126 65.965 117.398 67.9235 119.743 69.8748L121.022 68.3377L122.302 66.8005C119.228 64.2417 114.209 62.0974 107.264 60.8143C100.284 59.5245 91.2127 59.0774 79.8874 60.0382L80.0564 62.031ZM121.022 68.3377L119.743 69.8748C124.769 74.0585 124.966 81.8807 121.795 87.3096L123.522 88.3182L125.249 89.3267C129.08 82.7676 129.277 72.607 122.302 66.8006L121.022 68.3377ZM123.522 88.3182L121.902 89.49C123.668 91.933 126.186 99.0413 120.432 106.586L122.022 107.799L123.613 109.012C130.659 99.7728 127.71 90.6973 125.143 87.1463L123.522 88.3182ZM122.022 107.799L120.085 108.296C120.791 111.045 120.522 115.047 117.504 118.19C114.476 121.343 108.266 124.067 96.147 123.286L96.0184 125.282L95.8897 127.278C108.574 128.095 116.199 125.324 120.389 120.96C124.59 116.585 124.921 111.046 123.959 107.301L122.022 107.799ZM96.0184 125.282L95.0052 123.558C89.9681 126.517 75.733 130.786 59.7887 123.638L58.9705 125.463L58.1523 127.288C75.453 135.044 91.0542 130.518 97.0315 127.006L96.0184 125.282ZM58.9705 125.463L57.5101 124.096C55.614 126.123 53.4529 126.949 51.3009 126.837C49.108 126.722 46.6714 125.615 44.3495 123.288C39.69 118.617 35.789 109.27 36.0103 95.3431L34.0106 95.3113L32.0108 95.2795C31.779 109.868 35.8419 120.423 41.5177 126.113C44.3634 128.965 47.6872 130.653 51.0919 130.831C54.5374 131.011 57.811 129.629 60.4309 126.829L58.9705 125.463ZM34.0106 95.3113L36.0103 95.3431C36.1868 84.2343 38.4608 77.4275 41.3426 73.6779C44.1289 70.0527 47.5308 69.1912 50.709 69.974L51.1873 68.032L51.6656 66.09C46.9057 64.9178 41.8989 66.3901 38.1711 71.2404C34.5389 75.9662 32.1936 83.7767 32.0108 95.2795L34.0106 95.3113ZM51.1873 68.032L52.9598 68.9585C56.0686 63.0112 59.5357 59.5889 62.8201 55.7527C66.1308 51.886 69.0725 47.7654 70.4755 40.7587L68.5145 40.366L66.5534 39.9733C65.3366 46.0503 62.858 49.5581 59.7817 53.1512C56.6792 56.7748 52.7926 60.6437 49.4149 67.1055L51.1873 68.032Z" fill="black"/>
<path d="M74.5062 82.4461C75.5063 79.449 80.507 78.45 84.0074 81.9465L87.5079 90.9377L83.5074 95.9327V99.9288L86.0077 104.924L82.0071 115.913C69.5055 125.404 61.5044 104.924 68.5054 94.4342C70.1723 91.4372 73.7061 84.8437 74.5062 82.4461Z" fill="#D7E8FF"/>
<path d="M38.0013 84.5C34.0992 87.9647 42.0018 64.9634 51.003 68.4599L47.0024 82.4461C45.0022 79.4491 42.5019 80.5039 38.0013 84.5Z" fill="#D7E8FF"/>
<path d="M40.7639 117.141C38.0013 114.5 46.5013 131 57.362 127.488L49.869 115.174C49.2912 118.538 44.9618 121.154 40.7639 117.141Z" fill="#D7E8FF"/>
<path d="M124.013 87.9407C116.512 94.4342 110.511 94.4343 104.01 94.4342C97.4898 94.4342 83.5071 92.9357 84.0072 80.9476C84.5073 68.9594 97.509 69.4589 100.509 73.9545C101.454 75.3691 101.566 76.6871 101.107 77.9505M96.0088 83.4451C98.4156 81.642 100.413 79.8586 101.107 77.9505M109.01 76.9515L101.107 77.9505" stroke="black" stroke-width="4"/>
<path d="M53.0023 64.9634C46.0023 77.451 45.3356 90.2717 47.0023 96.4323" stroke="black" stroke-width="4"/>
<path d="M122.512 107.421C112.511 115.414 90.008 111.418 85.0074 103.925C81.0068 97.9308 85.6741 92.7693 88.5078 90.9377" stroke="black" stroke-width="4"/>
<path d="M97.009 125.404C82.007 122.407 79.0066 109.919 86.0075 105.423" stroke="black" stroke-width="4"/>
<path d="M76.0061 74.4539C76.0061 94.4341 60.004 101.927 57.5037 102.926" stroke="black" stroke-width="4"/>
<path d="M59.5041 125.903C51.103 120.708 48.3359 114.748 48.0026 112.417" stroke="black" stroke-width="4"/>
</svg>
