<svg width="375" height="197" viewBox="0 0 375 197" fill="none" xmlns="http://www.w3.org/2000/svg">
<rect width="375" height="197" fill="#F9FAFB"/>
<path d="M182 176H71.627L66 133.125L179 131.088L182 176ZM305 176H184.5L181.5 131.042L322.5 128.5L305 176ZM221 126L103 128L106 117H161L165 98H182C181 96.9997 179.401 93.0002 185 93H212L221 126ZM257 126H223L219.5 113H253L257 126ZM278 126H258.054L255.717 118.373H275.066L278 126ZM156.001 114H122.001L125.001 101H156.001V114ZM146 88C149.2 88 150 90.6667 150 92V99H142V92C142 90.6667 142.8 88.0002 146 88ZM182 47H175.962L184.369 89.5381L182.407 89.9258L180.895 82.2754L170 74.0996V95H168V47H164V45H182V47ZM206 91H194V87H206V91ZM200 73C203.314 73 206 75.6863 206 79C206 82.3137 203.314 85 200 85C196.686 84.9998 194 82.3136 194 79C194 75.6864 196.686 73.0002 200 73ZM170 71.5996L180.314 79.3398L178.337 69.332H170V71.5996ZM171.925 67.333H177.942L177.067 62.9082L171.925 67.333ZM170 66.165L176.619 60.6416L176.295 59H170V66.165ZM190.012 62.9922L180.977 64.9355L180.556 62.9795L189.592 61.0361L190.012 62.9922ZM194.107 58.0303L180.421 60.9736L180 59.0186L193.688 56.0752L194.107 58.0303ZM170 57H175.9L173.924 47H170V57ZM174 43H168V35H174V43ZM172 33H170V21H172V33Z" fill="#D1D5DB"/>
</svg>
