<svg width="20" height="20" viewBox="0 0 20 20" fill="none" xmlns="http://www.w3.org/2000/svg">
<path d="M9.20829 12.4583L7.66663 14C7.34163 14.325 6.82496 14.325 6.49163 14.0083C6.39996 13.9166 6.30829 13.8333 6.21663 13.7416C5.35829 12.875 4.58329 11.9666 3.89163 11.0166C3.20829 10.0666 2.65829 9.11663 2.25829 8.17496C1.86663 7.22496 1.66663 6.31663 1.66663 5.44996C1.66663 4.88329 1.76663 4.34163 1.96663 3.84163C2.16663 3.33329 2.48329 2.86663 2.92496 2.44996C3.45829 1.92496 4.04163 1.66663 4.65829 1.66663C4.89163 1.66663 5.12496 1.71663 5.33329 1.81663C5.54996 1.91663 5.74163 2.06663 5.89163 2.28329L7.82496 5.00829C7.97496 5.21663 8.08329 5.40829 8.15829 5.59163C8.23329 5.76663 8.27496 5.94163 8.27496 6.09996C8.27496 6.29996 8.21663 6.49996 8.09996 6.69163C7.99163 6.88329 7.83329 7.08329 7.63329 7.28329L6.99996 7.94163C6.90829 8.03329 6.86663 8.14163 6.86663 8.27496C6.86663 8.34163 6.87496 8.39996 6.89163 8.46663C6.91663 8.53329 6.94163 8.58329 6.95829 8.63329C7.10829 8.90829 7.36663 9.26663 7.73329 9.69996C8.10829 10.1333 8.50829 10.575 8.94163 11.0166C9.02496 11.1 9.11663 11.1833 9.19996 11.2666C9.53329 11.5916 9.54163 12.125 9.20829 12.4583Z" fill="#6C7584"/>
<path d="M18.3083 15.2751C18.3083 15.5084 18.2667 15.7501 18.1833 15.9834C18.1583 16.0501 18.1333 16.1167 18.1 16.1834C17.9583 16.4834 17.775 16.7667 17.5333 17.0334C17.125 17.4834 16.675 17.8084 16.1667 18.0167C16.1583 18.0167 16.15 18.0251 16.1417 18.0251C15.65 18.2251 15.1167 18.3334 14.5417 18.3334C13.6917 18.3334 12.7833 18.1334 11.825 17.7251C10.8667 17.3167 9.90833 16.7667 8.95833 16.0751C8.63333 15.8334 8.30833 15.5917 8 15.3334L10.725 12.6084C10.9583 12.7834 11.1667 12.9167 11.3417 13.0084C11.3833 13.0251 11.4333 13.0501 11.4917 13.0751C11.5583 13.1001 11.625 13.1084 11.7 13.1084C11.8417 13.1084 11.95 13.0584 12.0417 12.9667L12.675 12.3417C12.8833 12.1334 13.0833 11.9751 13.275 11.8751C13.4667 11.7584 13.6583 11.7001 13.8667 11.7001C14.025 11.7001 14.1917 11.7334 14.375 11.8084C14.5583 11.8834 14.75 11.9917 14.9583 12.1334L17.7167 14.0917C17.9333 14.2417 18.0833 14.4167 18.175 14.6251C18.2583 14.8334 18.3083 15.0417 18.3083 15.2751Z" fill="#6C7584"/>
</svg>
